<?xml version="1.0" standalone="no"?>
<!DOCTYPE svg PUBLIC "-//W3C//DTD SVG 20010904//EN"
 "http://www.w3.org/TR/2001/REC-SVG-20010904/DTD/svg10.dtd">
<svg version="1.0" xmlns="http://www.w3.org/2000/svg"
 width="1920.000000pt" height="1434.000000pt" viewBox="0 0 1920.000000 1434.000000"
 preserveAspectRatio="xMidYMid meet">

<g transform="translate(0.000000,1434.000000) scale(0.100000,-0.100000)"
fill="#000000" stroke="none">
<path d="M9310 13568 c-47 -17 -84 -20 -245 -22 -167 -3 -196 -5 -242 -24 -28
-12 -82 -26 -120 -32 -93 -15 -158 -47 -269 -132 -52 -40 -123 -93 -157 -116
-34 -24 -84 -63 -112 -86 -68 -58 -116 -87 -210 -125 -107 -44 -152 -71 -236
-141 -49 -41 -87 -64 -124 -75 -49 -14 -55 -19 -65 -53 -5 -20 -10 -45 -10
-54 0 -30 -29 -49 -66 -42 -23 4 -60 -2 -119 -21 -108 -33 -121 -51 -81 -119
14 -24 26 -51 26 -60 0 -20 -31 -36 -67 -36 -16 0 -33 -4 -39 -9 -5 -5 -25
-11 -44 -13 -27 -2 -35 -8 -40 -28 -4 -15 -21 -33 -45 -47 -22 -12 -51 -35
-65 -51 -31 -36 -78 -70 -144 -102 -38 -19 -50 -30 -49 -45 1 -11 0 -27 -4
-35 -3 -8 -7 -31 -8 -50 -1 -20 -16 -58 -35 -87 -22 -36 -31 -60 -28 -78 4
-19 -1 -31 -20 -45 -13 -11 -31 -20 -38 -20 -19 0 -81 -39 -88 -55 -6 -16 9
-29 49 -42 25 -9 30 -15 27 -39 -4 -35 -38 -66 -97 -91 -47 -19 -60 -42 -43
-78 7 -16 7 -29 -1 -43 -7 -14 -8 -23 -1 -27 5 -3 10 -18 10 -31 0 -14 9 -33
21 -43 28 -23 31 -120 5 -147 -14 -13 -16 -25 -10 -48 12 -48 7 -222 -7 -264
-22 -65 -15 -143 12 -126 13 8 30 -43 35 -103 4 -55 39 -139 86 -209 16 -24
34 -72 43 -119 9 -42 25 -94 36 -114 10 -19 19 -52 19 -71 0 -19 7 -60 16 -90
25 -87 65 -241 74 -286 9 -40 28 -90 56 -147 8 -16 14 -39 14 -52 0 -13 5 -36
11 -52 6 -15 25 -87 44 -159 18 -71 40 -144 49 -161 8 -17 18 -58 22 -90 3
-33 15 -70 26 -86 13 -19 22 -55 28 -108 5 -51 14 -86 24 -98 13 -14 16 -28
11 -55 -5 -24 -4 -36 4 -36 7 0 11 -7 9 -16 -5 -27 17 -27 31 -1 14 27 22 175
9 183 -4 3 -14 -10 -22 -28 l-15 -33 6 45 c3 25 9 51 13 59 4 7 0 28 -8 45
-18 36 -29 162 -14 152 6 -3 13 -2 17 4 3 5 2 10 -3 10 -5 0 -9 14 -10 31 -1
27 1 29 15 17 14 -11 15 -11 10 2 -4 8 -10 23 -13 33 -4 9 -13 17 -21 17 -12
0 -14 -9 -9 -45 5 -29 4 -45 -3 -45 -12 0 -14 7 -11 70 1 27 8 49 18 56 13 10
14 16 3 42 -9 22 -10 36 -2 50 6 12 11 39 11 62 0 22 7 56 14 75 13 31 13 35
0 35 -9 0 -14 7 -12 18 1 9 -1 23 -5 30 -5 7 -4 12 2 12 6 0 11 7 11 15 0 8 5
15 10 15 6 0 10 5 10 11 0 6 -9 9 -20 6 -25 -6 -25 7 -1 42 27 37 36 78 22 95
-9 11 -6 22 14 51 29 44 33 67 9 58 -14 -5 -15 -3 -6 14 6 11 18 25 26 33 17
13 22 40 8 40 -4 0 -13 -5 -20 -12 -7 -7 -12 -10 -12 -7 0 11 32 69 41 74 15
10 10 25 -8 25 -17 1 -17 1 0 14 23 18 22 29 -2 21 -21 -6 -38 10 -21 20 5 3
10 14 10 24 0 9 14 33 30 51 17 18 30 41 30 49 -1 13 -3 12 -15 -3 -8 -11 -15
-26 -15 -33 0 -7 -4 -13 -10 -13 -15 0 -12 26 5 40 9 7 14 19 11 27 -3 7 8 35
24 62 17 26 30 53 30 58 0 6 9 20 20 33 13 15 18 31 14 46 -4 17 -1 26 10 30
9 3 16 14 16 23 1 19 34 61 49 61 17 0 24 22 10 31 -11 6 -9 12 9 30 13 11 21
27 18 35 -3 8 8 18 30 26 23 8 33 17 29 26 -6 16 43 59 61 54 7 -1 17 11 22
28 6 16 15 30 20 30 13 0 92 82 92 96 0 6 12 17 27 25 37 19 68 44 129 107 28
28 54 52 58 52 8 0 42 28 93 78 31 30 52 42 73 42 22 0 28 4 24 15 -4 9 -1 15
8 15 7 0 34 11 60 25 26 14 54 25 63 25 8 0 15 5 15 10 0 6 7 10 16 10 9 0 34
10 56 22 33 19 40 20 48 8 8 -13 10 -13 10 1 0 18 38 29 96 29 18 0 54 11 80
25 43 23 49 24 75 11 24 -12 30 -12 46 1 17 13 16 14 -7 7 -14 -3 -22 -3 -18
1 4 5 2 15 -5 23 -10 13 -8 14 18 7 47 -12 120 -23 125 -18 2 2 -1 13 -8 23
-15 25 3 27 32 5 17 -13 22 -13 38 1 12 12 22 14 30 7 7 -5 38 -11 68 -13 30
-1 65 -3 76 -4 13 -1 19 -6 17 -13 -6 -16 25 -17 61 -3 19 7 27 6 33 -5 6 -10
32 -15 91 -16 46 -2 86 -7 89 -11 2 -5 16 -2 29 7 27 17 32 10 9 -15 -14 -15
-12 -16 14 -12 16 2 37 -1 48 -6 11 -7 25 -7 35 -1 12 7 24 3 44 -16 25 -23
28 -24 39 -8 12 16 14 16 29 0 21 -20 28 -21 45 -4 10 10 11 6 5 -17 -6 -26
-5 -27 14 -17 34 18 62 14 62 -9 0 -18 3 -19 21 -10 17 10 21 8 26 -9 6 -23
33 -29 33 -8 0 16 91 17 111 1 8 -6 30 -14 49 -18 76 -14 90 -19 90 -26 0 -4
-7 -10 -15 -14 -30 -11 -14 -26 30 -26 32 0 47 -5 51 -15 5 -12 10 -13 20 -4
11 9 14 8 14 -1 0 -7 7 -10 15 -6 10 3 18 -1 22 -12 8 -21 39 -52 53 -52 5 0
10 -6 10 -13 0 -20 35 -57 53 -57 24 0 30 -18 13 -36 -19 -19 -20 -27 -3 -21
22 7 65 -32 72 -66 12 -59 38 -107 57 -107 16 0 24 -22 19 -52 0 -5 8 -8 19
-8 11 0 20 -7 20 -15 0 -8 5 -15 10 -15 6 0 10 -8 10 -17 0 -17 40 -43 67 -43
7 0 13 -4 13 -9 0 -7 -41 -21 -74 -25 -5 -1 -11 -6 -13 -11 -2 -6 15 -9 43 -6
35 2 48 8 51 22 8 27 23 23 23 -6 0 -14 -5 -25 -11 -25 -6 0 -18 -7 -26 -16
-14 -13 -14 -17 -2 -25 19 -12 33 -11 47 3 6 6 15 8 19 3 5 -4 2 -10 -4 -12
-18 -6 -16 -28 3 -47 17 -18 44 -21 44 -6 0 6 -7 10 -15 10 -8 0 -15 7 -15 16
0 14 2 15 17 3 40 -31 45 -39 29 -39 -9 0 -16 -7 -16 -15 0 -11 12 -15 48 -15
45 0 72 -12 72 -33 0 -5 -12 -6 -26 -3 -19 5 -25 3 -22 -6 3 -7 17 -13 31 -13
15 1 27 -2 27 -6 0 -4 19 -5 43 -3 23 2 33 1 22 -2 -11 -4 -25 -10 -31 -15 -6
-5 -25 -6 -43 -3 -21 5 -31 3 -31 -6 0 -7 8 -10 20 -7 11 3 23 -1 28 -7 4 -7
19 -16 34 -19 20 -5 28 -3 31 10 3 11 5 7 6 -9 1 -23 6 -28 26 -28 16 0 25 -6
25 -15 0 -8 -4 -15 -10 -15 -18 0 -11 -17 9 -23 10 -2 24 -15 31 -27 11 -21
10 -22 -11 -18 -13 3 -32 9 -43 13 -14 6 -18 5 -14 -6 2 -8 15 -16 29 -17 13
-2 29 -8 36 -13 7 -7 13 -5 16 3 3 9 8 10 16 2 8 -7 6 -15 -7 -30 -18 -19 -19
-54 -1 -54 5 0 12 7 15 15 9 23 29 18 42 -10 14 -30 16 -46 3 -26 -7 11 -11 9
-20 -7 -9 -17 -9 -20 2 -17 7 3 13 -2 14 -14 1 -12 -6 -23 -17 -26 -11 -4 -17
-12 -13 -21 3 -7 0 -14 -7 -14 -6 0 -8 -4 -5 -10 3 -5 17 -10 31 -10 17 0 24
5 24 20 0 31 18 24 25 -11 4 -18 16 -35 31 -41 13 -6 24 -17 24 -25 0 -7 5
-13 10 -13 6 0 10 -8 10 -18 0 -10 7 -28 16 -41 9 -13 18 -31 18 -40 2 -17 22
-65 37 -91 5 -8 12 -22 15 -30 3 -8 17 -36 30 -61 13 -26 21 -54 18 -63 -4
-11 2 -26 16 -41 16 -17 21 -31 16 -48 -3 -13 -3 -27 1 -30 3 -4 7 -51 8 -104
1 -54 8 -145 14 -203 6 -58 13 -148 15 -200 7 -162 16 -272 28 -345 14 -84 15
-167 6 -341 -8 -138 -27 -324 -34 -335 -2 -4 -7 -29 -10 -56 -3 -26 -9 -50
-14 -53 -4 -3 -11 -23 -15 -45 -4 -22 -11 -44 -15 -50 -4 -5 -13 -40 -20 -77
-11 -62 -15 -68 -36 -68 -15 0 -24 -6 -24 -15 0 -8 7 -15 15 -15 8 0 15 -5 15
-11 0 -6 -7 -9 -15 -5 -11 4 -15 -1 -15 -19 0 -17 -6 -25 -17 -25 -13 0 -14
-3 -6 -11 17 -17 -5 -48 -30 -41 -17 4 -19 1 -15 -21 6 -32 -1 -34 -30 -7 -29
27 -36 25 -28 -10 4 -22 2 -29 -6 -24 -7 5 -9 -1 -4 -20 5 -21 3 -26 -13 -26
-10 0 -24 7 -31 15 -10 12 -10 15 0 15 8 0 10 3 7 6 -4 4 -13 1 -21 -5 -13
-11 -13 -16 2 -39 16 -25 16 -25 -10 -20 -42 8 -56 -6 -33 -34 11 -13 13 -17
5 -10 -23 20 -32 14 -16 -10 24 -33 19 -45 -5 -14 -11 14 -25 26 -30 26 -14 0
-10 -33 6 -54 8 -11 15 -24 15 -29 0 -11 -25 -3 -26 9 0 5 -4 17 -9 27 -6 15
-10 16 -16 5 -5 -7 -9 -24 -9 -37 0 -23 -1 -23 -18 -8 -26 23 -46 22 -39 -3 3
-12 -1 -24 -11 -29 -14 -8 -13 -12 8 -30 l25 -21 -43 21 c-48 22 -64 19 -38
-7 13 -12 14 -20 6 -28 -8 -8 -15 -6 -26 8 -18 25 -32 11 -16 -15 7 -11 10
-29 7 -40 -4 -11 -2 -19 4 -19 6 0 11 -7 11 -15 0 -14 -3 -14 -24 0 -17 12
-25 13 -28 4 -3 -8 -9 -6 -21 5 -18 18 -37 14 -37 -8 0 -8 7 -19 15 -26 19
-16 9 -33 -16 -27 -10 3 -22 1 -25 -4 -10 -17 -25 -9 -39 24 -8 17 -14 26 -15
20 0 -18 -25 -16 -40 2 -10 12 -9 15 4 15 14 0 16 10 13 73 -4 65 -8 77 -33
104 -16 17 -35 39 -42 49 -9 13 -14 15 -18 7 -4 -10 -11 -10 -27 -1 -16 8 -22
8 -25 -2 -3 -7 -29 14 -61 48 -35 37 -69 63 -87 67 -50 11 -54 14 -54 34 0 24
-43 54 -58 39 -6 -6 -12 -6 -16 1 -4 6 -14 11 -23 11 -9 0 -25 8 -35 17 -15
14 -21 14 -27 4 -7 -10 -9 -9 -14 3 -3 8 -1 16 4 18 5 2 3 12 -6 23 -16 20
-16 20 -10 -2 5 -18 2 -23 -12 -23 -22 0 -106 77 -98 89 3 5 -4 7 -16 4 -15
-4 -22 0 -26 16 -5 20 -23 30 -23 13 0 -4 -12 -9 -26 -10 -20 -1 -25 2 -22 16
2 9 10 16 16 15 7 -2 12 2 12 8 0 6 -6 9 -14 6 -7 -3 -24 6 -36 20 -18 20 -24
23 -31 12 -5 -8 -6 -22 -3 -31 9 -29 -9 -21 -58 27 -26 25 -54 45 -62 45 -9 0
-16 5 -16 10 0 6 -9 10 -20 10 -11 0 -20 -4 -20 -9 0 -9 -60 -21 -142 -29 -13
-2 -18 -11 -18 -32 0 -21 -5 -30 -16 -30 -10 0 -14 -6 -11 -14 3 -8 -2 -16
-14 -19 -23 -6 -26 -49 -4 -71 9 -9 11 -17 5 -21 -5 -3 -10 -1 -10 5 0 8 -10
9 -29 5 -26 -6 -29 -4 -24 14 6 25 -12 28 -21 5 -4 -10 1 -25 9 -34 10 -11 12
-20 6 -24 -5 -4 -13 -2 -16 4 -4 6 -15 8 -24 5 -15 -4 -18 1 -18 40 0 25 5 45
10 45 6 0 3 8 -6 18 -10 10 -17 24 -17 31 0 10 -7 9 -26 -4 -18 -11 -29 -14
-33 -7 -4 6 -21 9 -39 7 -23 -3 -32 0 -32 10 0 21 -13 19 -25 -4 -41 -76 -60
-108 -74 -118 -24 -18 -31 -16 -31 11 0 14 -4 28 -10 31 -6 4 -10 -6 -10 -22
0 -22 -2 -25 -10 -13 -5 8 -10 25 -10 38 0 25 -15 30 -24 7 -6 -16 -36 -21
-36 -7 0 5 14 28 30 50 36 50 32 53 -15 10 -27 -24 -35 -39 -35 -65 0 -29 -3
-33 -25 -33 -18 0 -28 -7 -35 -26 -6 -14 -8 -30 -4 -35 3 -5 1 -9 -5 -9 -5 0
-12 6 -15 13 -5 10 -7 10 -12 0 -3 -7 -14 -13 -24 -13 -31 0 -49 -11 -43 -26
3 -9 -2 -14 -16 -14 -12 0 -21 -6 -21 -15 0 -8 -3 -15 -8 -15 -4 0 -13 -13
-20 -30 -16 -34 -32 -40 -32 -10 0 12 -7 20 -17 20 -15 0 -16 -2 -3 -10 13 -8
11 -11 -7 -16 -26 -7 -28 -15 -11 -32 7 -7 8 -12 2 -12 -6 0 -16 -11 -22 -25
-6 -13 -23 -27 -37 -31 -14 -3 -25 -10 -25 -16 0 -5 -4 -7 -10 -3 -9 5 23 45
36 45 3 0 14 10 24 22 13 17 15 25 7 31 -9 6 -9 10 1 14 16 6 16 33 -1 33 -7
0 -28 -16 -47 -35 -24 -24 -40 -33 -54 -29 -13 3 -34 -5 -55 -21 -19 -14 -30
-25 -23 -25 7 0 12 -4 12 -10 0 -5 -9 -10 -20 -10 -22 0 -60 -29 -60 -46 0 -7
-10 -9 -27 -6 -22 4 -25 2 -20 -13 9 -22 -47 -95 -74 -95 -10 0 -19 -4 -19
-10 0 -5 7 -7 15 -4 9 4 15 0 15 -10 0 -9 -6 -16 -13 -16 -19 0 -22 -76 -3
-83 17 -7 28 2 54 43 26 42 80 95 89 86 4 -3 0 -12 -8 -19 -29 -23 -98 -114
-109 -141 -5 -15 -8 -42 -5 -61 3 -26 0 -35 -10 -35 -21 0 -20 -66 0 -74 8 -3
12 -12 9 -20 -6 -16 15 -33 25 -19 3 5 13 12 22 15 13 5 15 14 9 47 -4 22 -4
57 0 78 7 34 9 35 15 15 5 -16 13 -21 26 -17 27 9 24 -4 -4 -14 -19 -8 -22
-14 -19 -54 3 -34 7 -44 18 -40 16 6 19 23 4 23 -14 0 -13 27 2 36 6 4 23 -6
39 -24 35 -39 39 -39 68 -6 12 14 43 35 69 46 25 12 58 33 73 47 14 14 39 32
55 40 16 7 37 17 46 22 10 5 27 9 38 9 11 0 28 4 38 9 38 20 141 44 212 50
l75 7 -52 7 c-51 7 -86 4 -128 -12 -53 -21 -134 -42 -173 -45 -23 -2 -46 -6
-49 -10 -3 -3 -12 -1 -19 5 -9 7 -19 6 -36 -5 -23 -15 -70 -15 -116 -1 -21 7
-23 12 -18 44 5 31 4 33 -7 17 -6 -11 -24 -33 -39 -50 -26 -30 -28 -30 -45
-14 -17 17 -16 18 3 18 15 0 24 11 34 41 8 22 22 45 32 50 22 12 25 44 3 35
-17 -6 -20 9 -4 20 6 3 15 0 20 -7 9 -15 26 1 54 54 9 15 20 27 25 27 6 0 10
7 10 15 0 8 5 15 10 15 6 0 19 9 31 21 11 11 23 18 27 15 3 -4 0 -12 -6 -18
-7 -7 -12 -16 -12 -21 0 -5 20 9 45 32 32 29 51 40 64 36 12 -3 21 0 25 10 3
8 12 15 21 15 8 0 15 7 15 15 0 12 4 13 19 5 26 -13 81 31 81 66 0 13 5 24 10
24 6 0 10 -11 10 -24 0 -29 15 -42 24 -20 3 8 11 14 18 13 16 -3 59 8 115 28
40 15 45 14 115 -13 87 -34 157 -37 208 -9 19 11 37 22 40 25 3 4 24 11 47 18
45 13 87 4 107 -24 6 -8 22 -16 35 -17 32 -2 77 -45 63 -59 -8 -8 -15 -8 -24
-1 -7 6 -28 13 -45 16 -27 5 -33 3 -33 -11 0 -13 -2 -14 -9 -3 -7 10 -16 5
-42 -21 -44 -43 -62 -75 -48 -83 5 -4 16 -1 24 5 13 10 15 8 15 -13 0 -51 -25
-79 -32 -35 -4 28 -28 36 -28 9 0 -12 -4 -21 -10 -21 -5 0 -10 5 -10 10 0 6
-5 10 -10 10 -13 0 -11 -97 1 -122 5 -9 19 -18 31 -20 18 -3 13 -7 -22 -18
-76 -22 -99 -13 -100 40 -1 23 -3 21 -25 -15 -27 -43 -45 -52 -115 -55 l-45
-2 50 -14 c61 -17 109 -18 137 -3 12 6 93 13 192 15 147 3 175 1 196 -14 14
-9 31 -16 39 -17 8 0 19 -9 25 -19 6 -11 19 -28 29 -38 9 -10 17 -29 17 -43 0
-14 4 -25 9 -25 5 0 14 -14 20 -31 11 -33 5 -79 -11 -79 -5 0 -6 5 -2 11 4 7
-3 6 -17 -2 -23 -12 -23 -13 -4 -17 11 -2 25 -8 31 -13 6 -5 25 -6 41 -3 25 5
31 2 36 -15 3 -14 10 -19 21 -15 9 3 16 1 16 -5 0 -6 -5 -11 -11 -11 -5 0 -8
-4 -5 -9 3 -5 -1 -14 -9 -21 -19 -16 -19 -50 0 -50 8 0 15 9 15 20 0 13 5 18
15 14 17 -7 20 -55 4 -71 -12 -12 -3 -37 10 -28 5 2 11 18 14 35 4 17 13 30
21 30 15 0 40 34 41 55 0 5 10 15 23 21 12 6 30 20 38 30 14 18 15 18 9 -6 -5
-19 -4 -22 4 -10 6 8 11 23 11 32 0 13 37 36 48 29 1 -1 15 5 31 14 23 11 30
12 34 2 3 -9 7 -9 19 1 12 9 18 10 23 2 4 -7 -1 -14 -13 -17 -19 -5 -19 -6 -4
-33 11 -19 19 -25 24 -17 5 8 8 7 8 -4 0 -25 -12 -30 -32 -12 -10 9 -21 13
-24 10 -10 -10 5 -39 16 -32 15 9 11 -37 -5 -59 -11 -15 -12 -23 -3 -33 9 -11
9 -16 -2 -23 -8 -5 -18 -6 -22 -4 -4 3 -13 2 -19 -2 -8 -4 -4 -13 12 -25 l24
-19 -33 0 c-26 0 -32 -4 -30 -17 2 -13 -3 -18 -20 -17 -19 1 -22 -3 -18 -20 3
-12 6 -29 6 -38 0 -9 8 -24 17 -34 17 -17 15 -17 -32 -11 -28 4 -51 12 -53 17
-4 10 -32 14 -32 5 0 -3 9 -14 20 -25 32 -32 24 -45 -27 -43 -7 1 -13 -3 -13
-8 0 -5 -10 -9 -21 -9 -16 0 -20 -5 -16 -20 7 -28 -17 -45 -36 -25 -9 8 -20
15 -25 15 -5 0 -17 9 -27 20 -10 11 -25 20 -34 19 -14 0 -14 -1 -1 -7 23 -10
70 -54 70 -65 0 -5 -8 -16 -17 -23 -11 -8 -13 -13 -5 -14 6 0 12 -4 12 -9 0
-5 -8 -8 -17 -7 -14 1 -18 -6 -16 -28 2 -25 -1 -28 -22 -23 -14 2 -25 0 -25
-4 0 -5 5 -9 10 -9 6 0 10 -7 10 -15 0 -18 -17 -20 -23 -2 -2 6 -7 9 -11 5 -4
-3 -3 -16 4 -27 12 -24 3 -27 -24 -6 -14 11 -23 12 -33 4 -10 -9 -17 -8 -30 2
-13 11 -17 11 -20 2 -10 -29 -21 -10 -16 26 4 31 2 39 -13 45 -13 5 -26 -2
-46 -25 -15 -17 -28 -37 -28 -44 0 -7 -7 -18 -15 -25 -8 -7 -15 -21 -15 -31 0
-11 -4 -19 -10 -19 -14 0 -13 33 2 48 10 10 7 16 -10 28 -12 8 -22 21 -21 27
0 9 2 9 6 0 3 -10 8 -10 19 1 20 20 18 28 -5 21 -11 -3 -22 -1 -26 5 -10 16
-25 1 -25 -26 0 -14 -4 -22 -10 -19 -17 10 -11 -7 7 -20 9 -7 14 -19 10 -29
-8 -21 -27 -21 -27 2 0 14 -2 15 -10 2 -8 -12 -10 -11 -10 8 0 12 -5 22 -10
22 -11 0 -9 -84 2 -96 4 -4 2 -16 -3 -27 -6 -11 -9 -35 -6 -53 3 -19 2 -34 -4
-34 -5 0 -9 6 -9 14 0 8 -6 17 -12 19 -10 4 -10 6 0 6 14 1 16 57 2 66 -6 4
-10 -6 -10 -23 0 -17 -6 -32 -15 -36 -8 -3 -15 -16 -15 -28 -1 -23 -1 -23 -15
2 -10 18 -14 20 -15 8 0 -9 -5 -20 -11 -23 -7 -5 -9 4 -7 25 2 20 -2 35 -9 37
-8 3 -13 -4 -13 -15 0 -26 -39 -75 -40 -50 0 9 -3 24 -7 34 -5 13 -3 16 8 12
12 -5 15 4 14 46 0 28 -6 60 -13 71 -10 18 -11 18 -12 2 0 -10 -7 -20 -15 -23
-8 -4 -15 -11 -15 -16 0 -6 7 -4 17 3 15 13 16 10 10 -35 -4 -27 -7 -66 -7
-88 0 -26 -4 -37 -11 -32 -7 4 -10 27 -7 61 3 29 1 56 -4 59 -4 3 -9 -1 -10
-8 -2 -18 -5 -49 -7 -75 0 -14 -7 -23 -17 -23 -13 0 -15 -7 -11 -33 3 -19 1
-40 -4 -48 -10 -16 -12 -3 -9 74 1 44 -10 61 -25 37 -12 -19 -27 2 -21 30 4
23 1 29 -18 32 -22 4 -23 3 -13 -35 7 -28 7 -45 -1 -58 -7 -10 -12 -40 -12
-65 0 -40 -2 -45 -15 -34 -10 9 -15 9 -15 1 0 -6 -5 -11 -11 -11 -5 0 -9 8 -8
18 1 9 1 32 0 50 -1 45 -21 31 -22 -16 -2 -31 -3 -32 -6 -9 -2 15 -9 25 -14
22 -5 -4 -14 6 -20 22 l-11 28 -10 -28 c-9 -24 -6 -32 13 -53 24 -26 20 -31
-10 -12 -15 9 -24 8 -44 -5 -27 -18 -37 -14 -37 16 0 11 -5 17 -12 14 -24 -9
-58 12 -59 35 0 13 -4 32 -9 43 -6 15 -8 10 -8 -23 2 -54 -9 -64 -23 -24 -10
30 -39 45 -39 21 0 -6 -9 -8 -20 -4 -17 5 -20 2 -20 -24 0 -17 5 -31 11 -31 5
0 7 -5 4 -11 -4 -6 -13 -8 -21 -5 -7 3 -16 1 -20 -5 -4 -6 -11 -6 -20 2 -11 9
-14 9 -14 0 0 -7 -4 -9 -10 -6 -14 9 -12 78 3 94 10 11 8 11 -10 2 -13 -6 -24
-22 -24 -34 -2 -26 -2 -17 7 -96 5 -47 4 -62 -5 -57 -6 4 -11 27 -11 50 0 28
-7 52 -20 69 -12 14 -20 40 -20 61 0 20 -4 36 -10 36 -5 0 -10 -11 -10 -24 0
-18 -4 -23 -18 -19 -12 3 -23 -4 -31 -21 -14 -26 -34 -27 -24 -1 7 21 -14 19
-26 -2 -8 -15 -10 -11 -11 20 0 42 -10 48 -25 15 -10 -22 -35 -37 -35 -20 0 5
14 26 30 47 32 41 38 60 16 52 -19 -7 -28 3 -16 17 5 7 13 31 18 54 7 31 7 44
-3 52 -15 13 -27 -4 -39 -54 -5 -21 -10 -26 -15 -17 -5 7 -6 23 -4 35 3 11 -5
4 -17 -18 -12 -21 -19 -44 -16 -51 5 -15 -12 -35 -30 -35 -7 0 -16 10 -20 22
l-6 21 -18 -23 c-14 -19 -18 -20 -23 -7 -8 22 3 88 21 115 8 12 10 22 6 22 -5
0 -1 5 8 10 9 6 22 26 28 45 9 27 17 35 36 35 29 0 32 16 4 23 -11 3 -20 11
-20 17 0 8 8 10 21 7 19 -5 18 -2 -7 24 -24 25 -30 28 -33 13 -1 -9 -11 -26
-22 -37 -21 -23 -15 -44 7 -26 8 6 18 9 21 5 4 -4 3 -10 -3 -14 -6 -4 -14 -16
-18 -27 -6 -20 -55 -50 -65 -40 -2 3 3 21 12 40 9 19 12 35 7 35 -14 0 -60
-72 -60 -95 0 -11 -7 -29 -15 -39 -8 -11 -15 -40 -16 -65 l0 -46 -14 38 c-11
29 -12 54 -6 100 5 36 5 66 0 71 -6 6 -9 5 -9 -3 0 -27 -71 -121 -90 -121 -11
0 -31 -12 -45 -27 l-25 -28 0 25 c0 23 0 23 -15 4 -11 -15 -14 -16 -15 -3 0 8
7 24 15 35 19 25 19 54 0 54 -20 0 -19 19 3 43 16 20 16 20 -2 14 -12 -5 -24
-1 -33 10 -8 10 -12 12 -8 5 18 -35 14 -122 -5 -122 -5 0 -7 8 -3 18 6 15 4
15 -15 -2 -28 -24 -36 -17 -22 19 6 15 8 36 5 46 -4 10 -2 34 4 54 8 29 7 35
-6 35 -10 0 -13 6 -9 16 3 9 6 18 6 20 0 2 6 4 14 4 22 0 28 16 13 32 -22 22
-27 46 -11 52 23 9 24 8 21 -11 -1 -10 3 -19 8 -21 15 -5 23 40 11 60 -7 11
-6 24 2 42 6 14 8 26 3 26 -16 0 -61 -53 -61 -72 0 -11 -5 -18 -12 -15 -13 4
-14 36 -2 96 5 25 4 32 -6 26 -6 -4 -10 -16 -7 -26 3 -11 1 -19 -4 -19 -5 0
-9 -7 -9 -15 0 -8 -9 -15 -21 -15 -11 0 -17 5 -14 10 3 6 3 10 -2 10 -22 -1
-34 -21 -36 -62 -1 -33 -6 -44 -15 -40 -9 3 -12 16 -10 34 3 16 0 32 -6 35 -6
3 -8 3 -4 -1 3 -4 -4 -23 -17 -42 -13 -20 -27 -55 -31 -80 -3 -24 -9 -45 -13
-45 -54 -10 -61 -8 -62 19 -3 58 1 78 22 94 12 10 27 18 35 18 8 0 14 7 14 15
0 8 -7 15 -15 15 -8 0 -15 -4 -15 -9 0 -5 -8 -7 -18 -4 -10 2 -24 -3 -31 -11
-8 -9 -17 -16 -22 -16 -14 0 2 74 22 102 10 15 19 32 19 38 0 17 -19 11 -30
-9 -5 -11 -26 -29 -46 -42 -29 -18 -38 -19 -44 -8 -11 16 -4 29 16 29 8 0 14
5 14 10 0 6 -12 10 -26 10 -23 0 -25 3 -19 27 3 14 15 38 26 51 10 14 19 30
19 36 0 6 -12 -4 -26 -22 -14 -17 -35 -37 -46 -43 -23 -12 -23 -16 0 74 10 39
-2 62 -19 36 -8 -12 -10 -12 -18 0 -6 10 -5 24 5 42 8 16 14 35 14 44 0 26
-23 12 -33 -21 -10 -28 -23 -44 -39 -44 -9 0 23 90 37 106 7 8 13 7 22 -5 11
-15 12 -14 13 2 0 10 7 29 16 43 9 13 14 27 11 30 -3 3 -8 -4 -12 -15 -4 -15
-14 -20 -33 -19 -41 2 -44 7 -22 38 26 36 25 40 -6 40 -14 0 -23 4 -19 10 3 6
15 10 26 10 12 0 19 5 17 13 -3 6 -11 12 -18 12 -22 0 -22 22 0 28 15 4 20 13
20 41 0 25 -4 36 -15 36 -24 0 -20 85 5 112 20 22 20 36 0 23 -7 -4 -19 -24
-27 -44 -15 -35 -16 -35 -24 -13 -5 13 -6 35 -3 48 4 14 1 31 -7 40 -11 14
-11 18 4 29 9 7 17 24 17 39 0 28 -4 29 -57 9 -20 -8 -15 11 7 30 28 24 27 80
-2 100 -22 14 -22 15 -5 35 12 13 15 22 8 27 -6 3 -11 17 -11 31 0 26 -14 32
-27 12 -30 -49 -35 -373 -8 -483 10 -37 18 -83 20 -104 9 -112 34 -250 51
-275 7 -10 10 -32 7 -50 -3 -20 3 -49 18 -81 12 -27 23 -69 24 -92 0 -29 6
-47 19 -56 14 -10 17 -21 12 -40 -3 -14 -2 -29 4 -32 5 -3 10 -14 10 -24 0
-10 7 -24 15 -31 8 -7 15 -25 15 -41 0 -17 14 -49 35 -78 19 -26 35 -53 35
-59 0 -23 162 -250 214 -301 31 -29 56 -57 56 -62 0 -5 8 -9 19 -9 10 0 24 -7
31 -15 7 -8 21 -15 31 -15 11 0 19 -4 19 -10 0 -5 8 -10 19 -10 10 0 24 -7 31
-15 7 -8 20 -15 29 -15 9 0 39 -20 67 -44 28 -25 88 -64 135 -87 46 -23 97
-55 112 -71 16 -15 33 -28 37 -28 5 0 30 -13 56 -29 25 -17 60 -33 78 -37 28
-6 99 -49 201 -122 58 -41 118 -62 180 -62 30 0 72 -7 94 -16 33 -13 46 -14
76 -4 31 10 45 9 93 -8 31 -11 95 -28 142 -37 88 -17 119 -32 157 -72 12 -12
33 -23 45 -23 58 0 98 -60 99 -147 0 -32 13 -105 28 -162 22 -87 32 -108 53
-120 69 -42 118 -86 118 -105 0 -32 26 -64 71 -86 47 -24 73 -62 66 -93 -22
-85 -76 -228 -93 -242 -16 -13 15 -112 41 -131 26 -20 124 -19 131 1 4 8 14
15 24 15 29 0 81 50 100 96 10 23 36 59 57 80 54 54 106 122 131 169 24 48 66
71 142 80 70 7 122 24 115 36 -14 21 7 27 50 14 37 -11 45 -11 45 0 0 10 5 11
25 2 l25 -12 -32 -27 c-18 -15 -50 -31 -71 -35 -37 -8 -50 -30 -14 -26 11 2
17 -4 17 -17 0 -11 -4 -20 -10 -20 -5 0 -10 -4 -10 -10 0 -5 13 -10 29 -10 16
0 48 -9 72 -19 24 -11 46 -16 49 -12 3 4 13 10 23 14 27 10 25 122 -3 139 -23
15 -27 38 -5 38 11 0 15 11 15 43 0 50 7 62 27 46 15 -13 18 -89 2 -89 -5 0
-7 -5 -4 -11 4 -6 13 -8 21 -5 9 3 14 -1 14 -12 1 -15 3 -15 18 3 29 32 56 44
76 33 13 -7 21 -5 31 9 8 10 15 25 15 34 0 8 4 19 8 25 5 5 5 61 1 124 -7 98
-12 335 -11 515 1 184 24 611 36 675 19 99 54 190 121 318 101 189 188 405
235 577 12 44 35 122 51 173 16 51 29 107 29 126 0 50 26 105 53 110 12 3 64
7 115 9 70 3 97 9 112 22 29 26 16 35 -52 35 -58 0 -105 20 -131 55 -11 15 0
179 12 183 6 2 11 15 11 28 0 15 6 24 15 24 8 0 15 -4 15 -10 0 -5 5 -10 11
-10 8 0 10 15 5 48 -4 26 -9 67 -12 92 l-6 45 58 43 c32 23 65 43 74 43 8 1
30 2 49 3 30 1 38 7 63 50 32 54 58 121 58 150 0 11 7 27 16 37 12 13 18 44
21 106 5 92 -6 143 -31 143 -7 0 -16 7 -20 15 -3 8 -17 15 -31 15 -25 0 -35 8
-79 65 -16 21 -43 37 -80 48 -31 10 -56 22 -56 27 0 5 -9 18 -20 28 -20 18
-43 106 -42 161 0 32 20 51 32 31 37 -61 45 -53 20 20 -13 38 -15 58 -8 67 7
9 7 22 -1 44 -14 40 -14 69 -1 69 6 0 10 -6 10 -14 0 -25 17 -27 80 -9 50 13
75 29 132 79 38 35 89 76 113 92 50 33 45 52 -12 52 -42 0 -78 -18 -168 -85
-64 -49 -88 -59 -122 -56 -26 2 -23 42 10 118 22 50 41 116 52 183 39 236 72
373 126 522 15 42 31 94 34 115 3 21 13 56 20 78 30 86 57 213 60 280 2 39 4
70 5 70 1 0 12 80 24 178 l22 178 -23 47 c-15 31 -22 61 -21 87 3 38 4 40 33
37 24 -3 28 -1 18 9 -17 17 -16 29 1 29 10 0 6 20 -15 82 -23 70 -31 83 -58
94 -17 7 -31 18 -31 24 0 6 -15 49 -34 95 -29 74 -31 85 -16 85 38 0 115 -92
154 -184 15 -36 50 -66 78 -66 25 0 24 50 -1 81 -20 26 -83 180 -76 187 15 15
42 -20 80 -102 24 -51 48 -97 53 -100 6 -4 17 3 26 15 11 17 14 37 9 87 l-6
65 27 -5 c18 -4 29 -1 33 8 7 19 -15 108 -43 172 -13 28 -20 52 -16 53 4 0 -2
4 -14 9 -30 12 -69 97 -53 116 8 10 9 37 4 89 -4 49 -3 87 5 110 9 28 9 39 -1
51 -18 22 5 68 31 61 11 -3 22 -2 24 2 7 11 -34 71 -49 71 -7 0 -30 14 -51 31
-22 17 -56 40 -76 50 -47 24 -48 45 -3 86 33 31 46 63 25 63 -5 0 -10 23 -10
50 0 29 -4 50 -11 50 -6 0 -29 -15 -51 -34 -43 -38 -85 -53 -101 -37 -19 19
-18 73 3 106 23 37 26 60 8 49 -10 -6 -10 -4 0 7 17 18 15 50 -4 77 -10 14
-13 33 -10 50 7 33 -6 84 -22 90 -8 2 -12 -9 -12 -35 0 -67 -28 -174 -55 -208
-15 -20 -38 -36 -57 -40 -49 -11 -57 8 -56 139 0 81 -4 121 -16 148 -9 21 -18
67 -21 103 -5 72 -12 90 -44 119 l-21 19 6 -46 c4 -26 4 -47 1 -47 -3 0 -23
27 -45 59 -35 53 -60 121 -68 186 -1 11 -3 23 -3 26 -5 34 -139 112 -176 103
-25 -6 -229 70 -270 101 -46 34 -91 55 -121 55 -26 0 -94 44 -282 181 -42 31
-91 63 -107 72 -17 8 -70 52 -118 97 -112 103 -162 126 -150 69 l6 -32 -39 7
c-21 4 -62 18 -90 32 -57 27 -94 31 -94 10 0 -7 18 -34 40 -59 82 -93 38 -102
-100 -21 l-94 57 -62 -12 c-62 -11 -104 -5 -119 18 -3 6 -20 11 -37 11 -23 0
-29 4 -24 15 4 11 -3 19 -20 25 -37 15 -82 11 -144 -12z m-312 -106 c4 -26
-57 -113 -93 -132 -49 -26 -60 18 -20 86 40 68 106 95 113 46z m1496 -264 c5
-9 7 -20 3 -24 -11 -11 -57 14 -57 31 0 21 39 16 54 -7z m-2028 -43 c18 -14
18 -14 -4 -15 -13 0 -30 7 -38 15 -14 13 -13 15 3 15 11 0 28 -7 39 -15z
m-122 -34 c-22 -22 -115 -50 -144 -45 -32 7 -38 18 -17 31 13 8 159 31 166 26
3 -2 0 -7 -5 -12z m-274 -124 c0 -22 -41 -49 -81 -54 -51 -7 -49 6 4 39 46 29
77 35 77 15z m2918 -42 c27 -15 64 -25 87 -25 42 0 68 -21 128 -101 28 -38
137 -299 137 -328 0 -23 -37 -71 -55 -71 -8 0 -16 8 -19 18 -8 25 -5 106 5
112 4 3 0 32 -8 65 -10 43 -26 72 -52 100 -20 22 -52 58 -71 80 -54 64 -99 95
-136 95 -38 0 -74 29 -74 60 0 25 1 25 58 -5z m-3138 -55 c13 -8 12 -11 -5
-24 -27 -21 -75 -21 -75 -1 0 26 53 42 80 25z m584 -48 c64 -35 85 -58 51 -56
-8 0 -30 1 -49 2 -25 2 -35 7 -39 23 -3 11 -19 25 -36 32 -17 6 -33 17 -35 24
-10 24 38 13 108 -25z m19 -347 l31 -40 -44 40 c-55 51 -79 78 -80 89 0 13 55
-40 93 -89z m-459 25 c57 -63 43 -64 -26 -1 -16 14 -28 28 -28 33 0 18 19 6
54 -32z m724 -16 c-4 -3 -12 5 -18 18 -12 22 -12 22 6 6 10 -10 15 -20 12 -24z
m-505 -58 c61 -63 103 -116 92 -116 -9 0 -185 184 -185 194 0 13 29 -11 93
-78z m589 2 c-7 -7 -12 -8 -12 -2 0 14 12 26 19 19 2 -3 -1 -11 -7 -17z m-42
-28 c6 -11 8 -20 6 -20 -3 0 -10 9 -16 20 -6 11 -8 20 -6 20 3 0 10 -9 16 -20z
m-43 -13 c12 -13 25 -36 28 -50 4 -15 11 -30 16 -33 5 -3 9 -11 9 -17 0 -7 -7
-3 -16 8 -8 11 -25 31 -38 45 -25 27 -43 70 -29 70 4 0 18 -11 30 -23z m1810
-1 c-6 -8 -15 -12 -19 -9 -4 2 -2 10 5 17 6 8 15 12 19 9 4 -2 2 -10 -5 -17z
m893 9 c15 -18 9 -50 -10 -50 -10 0 -16 12 -18 33 -3 34 8 41 28 17z m-3675
-13 c-3 -3 -11 0 -18 7 -9 10 -8 11 6 5 10 -3 15 -9 12 -12z m-72 -12 c54 -43
71 -59 62 -60 -5 0 -30 16 -54 35 -24 19 -38 35 -32 35 7 0 17 -4 24 -10z
m249 -11 c40 -19 196 -204 183 -217 -2 -2 -21 10 -41 27 -21 17 -40 28 -43 26
-6 -6 29 -45 41 -45 10 0 38 -25 38 -34 0 -18 -37 0 -76 37 -25 23 -60 56 -78
72 -17 17 -43 37 -56 46 -30 20 -21 36 9 17 18 -11 23 -11 32 2 8 12 9 10 4
-7 -8 -30 40 -85 55 -63 7 11 5 18 -10 29 -11 7 -20 22 -20 32 0 11 -6 20 -12
21 -7 0 -17 2 -23 2 -5 1 -15 5 -22 9 -6 4 -19 4 -30 1 -14 -5 -15 -4 -4 4 12
9 12 13 2 26 -8 9 -10 16 -6 16 4 0 14 -8 21 -17 7 -10 16 -14 21 -9 4 5 2 11
-4 13 -7 3 -13 9 -13 14 0 12 4 11 32 -2z m877 -23 c-3 -3 -11 5 -18 17 -13
21 -12 21 5 5 10 -10 16 -20 13 -22z m-1114 -30 c17 -16 37 -25 47 -23 9 3 23
-1 29 -9 15 -18 4 -30 -14 -16 -8 7 -17 8 -21 4 -4 -4 -14 2 -22 12 -8 11 -14
14 -14 7 0 -7 -19 4 -42 23 -23 20 -45 36 -50 36 -4 0 -8 5 -8 10 0 16 62 -13
95 -44z m126 37 c13 -15 12 -15 -8 -4 -24 12 -29 21 -14 21 5 0 15 -7 22 -17z
m341 -5 c45 -44 157 -186 158 -200 0 -15 -33 -8 -46 10 -7 9 -16 17 -21 17 -8
0 -55 45 -98 95 -17 20 -17 22 -3 17 15 -5 16 -3 6 21 -7 15 -15 31 -20 37 -9
10 -11 25 -4 25 3 0 15 -10 28 -22z m738 -32 c0 -5 -7 -3 -15 4 -8 7 -15 20
-15 28 0 13 3 12 15 -4 8 -10 15 -23 15 -28z m-626 -32 c15 -19 22 -32 14 -29
-17 7 -63 65 -51 64 4 0 21 -16 37 -35z m-848 -35 c3 -5 0 -9 -7 -9 -17 0 -79
40 -79 51 0 10 77 -28 86 -42z m418 -41 c20 -29 14 -34 -17 -13 -31 20 -46 60
-17 45 11 -6 26 -20 34 -32z m-502 17 c0 -5 -5 -11 -11 -13 -6 -2 -11 4 -11
13 0 9 5 15 11 13 6 -2 11 -8 11 -13z m328 -16 c0 -6 -4 -7 -10 -4 -5 3 -10
11 -10 16 0 6 5 7 10 4 6 -3 10 -11 10 -16z m-137 -51 c62 -64 137 -159 137
-172 0 -4 10 -16 23 -27 12 -10 17 -18 11 -19 -15 0 -94 81 -94 97 0 7 -4 13
-9 13 -6 0 -34 29 -64 64 -30 36 -58 62 -61 59 -10 -10 -35 18 -29 33 9 25 26
16 86 -48z m4188 -16 c-12 -23 -51 -58 -51 -45 0 11 45 63 55 63 3 0 1 -8 -4
-18z m-4133 -103 c7 -19 -16 -8 -56 27 -23 19 -42 40 -42 45 0 10 93 -58 98
-72z m3039 -5 c-3 -3 -12 -4 -19 -1 -8 3 -5 6 6 6 11 1 17 -2 13 -5z m-3292
-24 c-3 -5 -12 -10 -18 -10 -7 0 -6 4 3 10 19 12 23 12 15 0z m3412 -6 c-3 -3
-12 -4 -19 -1 -8 3 -5 6 6 6 11 1 17 -2 13 -5z m110 0 c-3 -3 -12 -4 -19 -1
-8 3 -5 6 6 6 11 1 17 -2 13 -5z m-3892 -24 c3 -6 -1 -7 -9 -4 -18 7 -21 14
-7 14 6 0 13 -4 16 -10z m309 -35 c21 -33 20 -39 -5 -22 -11 8 -29 13 -40 10
-21 -6 -25 7 -7 25 18 18 34 14 52 -13z m56 -6 c0 -6 -4 -7 -10 -4 -5 3 -10
11 -10 16 0 6 5 7 10 4 6 -3 10 -11 10 -16z m3453 14 c-7 -2 -19 -2 -25 0 -7
3 -2 5 12 5 14 0 19 -2 13 -5z m-3767 -49 c13 -14 24 -29 24 -35 0 -14 -50
-30 -71 -24 -25 8 -24 21 1 28 23 6 27 27 5 27 -16 0 -20 12 -8 23 12 12 25 7
49 -19z m-146 -14 c0 -5 -9 -10 -20 -10 -11 0 -20 5 -20 10 0 6 9 10 20 10 11
0 20 -4 20 -10z m-120 -340 c0 -11 7 -20 15 -20 8 0 15 -4 15 -10 0 -16 -30
-12 -37 6 -4 11 -14 13 -37 9 l-31 -6 30 20 c39 25 45 25 45 1z m538 -44 c3
-3 -6 -6 -19 -6 l-24 -1 24 -13 c22 -12 22 -13 4 -18 -11 -3 -38 -2 -59 2 -21
4 -32 8 -24 9 12 1 12 3 1 14 -11 10 -14 10 -18 0 -7 -18 -21 -16 -32 5 -8 16
-3 17 66 15 41 -1 78 -4 81 -7z m-418 -121 c0 -8 -4 -15 -10 -15 -5 0 -10 7
-10 15 0 8 5 15 10 15 6 0 10 -7 10 -15z m610 5 c0 -13 -41 -22 -76 -18 -26 4
-25 5 16 15 60 14 60 14 60 3z m-455 -30 c8 -13 -15 -13 -35 0 -12 8 -11 10 7
10 12 0 25 -4 28 -10z m395 -10 c0 -5 -15 -10 -32 -9 -28 0 -30 2 -13 9 28 12
45 12 45 0z m-440 -10 c11 -7 6 -10 -22 -10 -20 0 -40 5 -43 10 -8 13 45 13
65 0z m360 0 c0 -5 -4 -10 -10 -10 -5 0 -10 5 -10 10 0 6 5 10 10 10 6 0 10
-4 10 -10z m-33 -27 c5 -14 -40 -25 -63 -16 -12 4 -15 3 -10 -5 4 -7 2 -12 -3
-12 -6 0 -11 4 -11 9 0 14 22 26 43 23 9 -2 17 2 17 8 0 14 22 8 27 -7z m-152
-58 c-16 -13 -36 -24 -42 -25 -7 0 -31 -17 -53 -38 -37 -37 -42 -39 -84 -32
-25 4 -52 12 -60 19 -8 7 -20 10 -26 6 -6 -4 -19 0 -28 8 -9 8 -25 17 -34 18
-15 4 -15 6 3 28 23 28 73 31 154 11 45 -12 54 -11 95 8 25 12 59 21 75 22
l30 0 -30 -25z m4546 14 c24 -12 42 -55 34 -80 -15 -47 -95 -5 -95 49 0 43 20
53 61 31z m-4631 -129 c0 -5 -5 -10 -11 -10 -5 0 -7 5 -4 10 3 6 8 10 11 10 2
0 4 -4 4 -10z m174 -19 c8 -12 -35 -47 -66 -55 -31 -7 -39 9 -9 19 10 3 26 14
36 25 20 22 31 25 39 11z m-164 -115 c0 -2 -7 -7 -16 -10 -8 -3 -12 -2 -9 4 6
10 25 14 25 6z m-91 -63 c-1 -13 -69 -66 -76 -60 -7 8 52 67 66 67 6 0 11 -3
10 -7z m115 -58 c-3 -8 -13 -17 -22 -20 -10 -3 -34 -21 -55 -40 -21 -19 -47
-37 -58 -40 -10 -4 -17 -11 -14 -16 4 -5 -1 -9 -10 -9 -25 0 -13 22 26 48 19
13 45 33 59 45 20 17 58 40 77 46 1 1 0 -6 -3 -14z m-173 -65 c-38 -35 -41
-21 -4 21 16 17 29 25 31 19 3 -7 -10 -25 -27 -40z m3819 -311 c0 -5 -4 -9
-10 -9 -5 0 -10 7 -10 16 0 8 5 12 10 9 6 -3 10 -10 10 -16z m205 -59 c3 -5 1
-10 -4 -10 -6 0 -11 5 -11 10 0 6 2 10 4 10 3 0 8 -4 11 -10z m-120 -10 c3 -5
-1 -10 -9 -10 -9 0 -16 5 -16 10 0 6 4 10 9 10 6 0 13 -4 16 -10z m95 -25 c0
-8 -4 -15 -10 -15 -5 0 -10 7 -10 15 0 8 5 15 10 15 6 0 10 -7 10 -15z m49
-72 c1 -7 -6 -13 -15 -13 -11 0 -14 5 -10 16 3 9 6 23 7 32 0 14 2 13 9 -3 5
-11 9 -26 9 -32z m-49 22 c0 -8 -4 -15 -9 -15 -13 0 -22 16 -14 24 11 11 23 6
23 -9z m-3787 -621 c-10 -15 -19 -22 -21 -15 -2 7 4 19 14 26 26 20 27 19 7
-11z m-83 -150 c-18 -21 -24 -10 -9 18 8 14 14 18 17 10 2 -7 -2 -19 -8 -28z
m40 -44 c0 -5 -4 -10 -10 -10 -5 0 -10 5 -10 10 0 6 5 10 10 10 6 0 10 -4 10
-10z m-80 -21 c0 -5 -4 -9 -10 -9 -5 0 -10 7 -10 16 0 8 5 12 10 9 6 -3 10
-10 10 -16z m37 -116 c-3 -10 -5 -2 -5 17 0 19 2 27 5 18 2 -10 2 -26 0 -35z
m37 -150 c-10 -54 -27 -24 -18 33 6 42 8 45 16 25 4 -13 5 -39 2 -58z m4490
-1324 c30 -24 63 -63 75 -87 l21 -43 -34 -72 c-42 -90 -100 -142 -140 -127
-25 9 -26 12 -26 95 0 48 -5 96 -12 108 -13 24 -17 165 -5 184 11 17 57 -4
121 -58z m-1710 -389 c16 0 17 -3 8 -12 -10 -10 -17 -7 -32 10 -11 12 -15 17
-8 12 7 -6 21 -10 32 -10z m-1014 -85 c-8 -15 -40 -13 -40 2 0 9 8 13 23 11
12 -2 20 -7 17 -13z m1450 -176 c0 -14 -17 -10 -23 5 -4 10 -1 13 9 9 7 -3 14
-9 14 -14z m-640 -1 c0 -9 3 -9 11 -1 7 7 18 8 28 3 9 -5 33 -16 53 -24 20 -9
40 -21 43 -26 3 -6 17 -10 29 -10 13 0 29 -7 36 -15 7 -8 18 -15 25 -15 17 0
28 -31 16 -43 -10 -10 -51 8 -51 23 0 6 -8 10 -18 10 -10 0 -23 5 -28 10 -7 7
-19 8 -36 1 -21 -8 -29 -6 -47 13 -11 12 -21 28 -21 34 0 7 -10 12 -22 12 -23
1 -58 21 -58 34 0 3 9 6 20 6 11 0 20 -5 20 -12z m1345 2 c3 -5 1 -10 -4 -10
-6 0 -11 5 -11 10 0 6 2 10 4 10 3 0 8 -4 11 -10z m-3795 -30 c0 -5 -7 -10
-16 -10 -8 0 -12 5 -9 10 3 6 10 10 16 10 5 0 9 -4 9 -10z m3256 -88 c-4 -3
-11 0 -16 8 -15 24 -11 33 6 15 9 -9 13 -19 10 -23z m-2054 -37 c-28 -35 -34
-20 -9 19 13 20 23 28 25 20 2 -8 -5 -25 -16 -39z m1276 -58 c5 -24 -24 -21
-31 4 -4 15 -1 19 11 17 9 -2 18 -11 20 -21z m-48 -2 c0 -8 -4 -15 -10 -15 -5
0 -7 7 -4 15 4 8 8 15 10 15 2 0 4 -7 4 -15z m-1430 -232 c0 -21 -3 -24 -9
-14 -5 8 -7 20 -4 28 8 21 13 15 13 -14z m1570 7 c0 -5 -5 -10 -11 -10 -5 0
-7 5 -4 10 3 6 8 10 11 10 2 0 4 -4 4 -10z m-1570 -79 c0 -13 -26 -32 -33 -24
-14 13 -6 33 13 33 11 0 20 -4 20 -9z m2040 -211 c0 -5 -8 -10 -17 -10 -15 0
-16 2 -3 10 19 12 20 12 20 0z m-110 -200 c0 -5 -4 -10 -9 -10 -6 0 -13 5 -16
10 -3 6 1 10 9 10 9 0 16 -4 16 -10z m-2486 -126 c18 -7 22 -44 5 -44 -7 0
-18 -8 -25 -17 -17 -24 -32 -8 -16 17 7 11 12 27 12 35 0 17 2 18 24 9z m-156
-43 c3 -8 -1 -12 -9 -9 -7 2 -15 10 -17 17 -3 8 1 12 9 9 7 -2 15 -10 17 -17z
m114 -73 c-9 -9 -12 -7 -12 12 0 19 3 21 12 12 9 -9 9 -15 0 -24z m2028 -68
c-6 -10 -14 -21 -19 -24 -5 -4 -7 -15 -4 -26 3 -11 9 -17 14 -14 5 3 9 -2 9
-10 0 -21 -18 -30 -35 -16 -8 6 -19 9 -25 5 -6 -3 -10 3 -10 15 0 12 4 19 8
16 5 -3 14 12 22 32 7 20 18 40 23 44 18 11 28 -2 17 -22z m-1470 -29 c-1 -9
-26 -41 -34 -41 -3 0 -6 13 -6 29 0 24 3 28 20 24 11 -3 20 -8 20 -12z m1510
-31 c0 -5 -2 -10 -4 -10 -3 0 -8 5 -11 10 -3 6 -1 10 4 10 6 0 11 -4 11 -10z
m-1790 -84 c0 -11 -19 -15 -25 -6 -3 5 1 10 9 10 9 0 16 -2 16 -4z m290 -56
c0 -5 -2 -10 -4 -10 -3 0 -8 5 -11 10 -3 6 -1 10 4 10 6 0 11 -4 11 -10z m917
-62 c-3 -8 -6 -5 -6 6 -1 11 2 17 5 13 3 -3 4 -12 1 -19z m113 -25 c0 -7 -9
-13 -20 -13 -19 0 -26 11 -15 22 10 10 35 4 35 -9z m-123 -25 c-3 -7 -5 -2 -5
12 0 14 2 19 5 13 2 -7 2 -19 0 -25z m-710 -25 c-3 -10 -5 -4 -5 12 0 17 2 24
5 18 2 -7 2 -21 0 -30z m463 -23 c5 0 10 -5 10 -10 0 -7 -6 -7 -20 0 -11 6
-20 20 -19 33 l0 22 9 -22 c5 -13 14 -23 20 -23z m-80 15 c0 -8 -4 -15 -10
-15 -5 0 -7 7 -4 15 4 8 8 15 10 15 2 0 4 -7 4 -15z m-140 -29 c0 -11 -19 -15
-25 -6 -3 5 1 10 9 10 9 0 16 -2 16 -4z m-160 -26 c0 -5 -2 -10 -4 -10 -3 0
-8 5 -11 10 -3 6 -1 10 4 10 6 0 11 -4 11 -10z m230 -10 c0 -5 -2 -10 -4 -10
-3 0 -8 5 -11 10 -3 6 -1 10 4 10 6 0 11 -4 11 -10z"/>
<path d="M6866 11240 c-31 -10 -4 -20 61 -22 32 -1 67 4 78 10 22 13 24 12
-65 16 -30 2 -64 0 -74 -4z"/>
<path d="M8850 11490 c0 -5 9 -10 21 -10 11 0 17 5 14 10 -3 6 -13 10 -21 10
-8 0 -14 -4 -14 -10z"/>
<path d="M8900 11480 c0 -12 40 -34 48 -26 3 4 -3 13 -14 21 -22 17 -34 19
-34 5z"/>
<path d="M8583 11443 c-22 -8 -14 -20 12 -20 14 0 25 3 25 7 0 11 -22 18 -37
13z"/>
<path d="M9890 11280 c0 -11 14 -11 50 0 22 7 21 8 -12 9 -21 1 -38 -3 -38 -9z"/>
<path d="M10430 10770 c0 -5 5 -10 10 -10 6 0 10 5 10 10 0 6 -4 10 -10 10 -5
0 -10 -4 -10 -10z"/>
<path d="M10467 10704 c-8 -8 1 -24 14 -24 5 0 9 7 9 15 0 15 -12 20 -23 9z"/>
<path d="M10495 10620 c3 -5 15 -10 26 -10 11 0 17 5 14 10 -3 6 -15 10 -26
10 -11 0 -17 -4 -14 -10z"/>
<path d="M10425 10589 c-4 -6 -3 -15 3 -21 6 -6 11 -4 15 6 7 18 -9 31 -18 15z"/>
<path d="M10487 10567 c-4 -10 2 -13 19 -9 13 2 24 8 24 13 0 14 -37 10 -43
-4z"/>
<path d="M10675 10480 c-3 -5 3 -10 15 -10 12 0 18 5 15 10 -3 6 -10 10 -15
10 -5 0 -12 -4 -15 -10z"/>
<path d="M10710 10431 c0 -12 -5 -21 -12 -21 -6 0 -9 -2 -6 -5 3 -3 13 -3 22
1 18 7 22 29 6 39 -5 3 -10 -3 -10 -14z"/>
<path d="M10743 10373 c9 -2 23 -2 30 0 6 3 -1 5 -18 5 -16 0 -22 -2 -12 -5z"/>
<path d="M10677 10344 c3 -8 11 -14 19 -14 21 0 17 17 -5 23 -14 3 -18 1 -14
-9z"/>
<path d="M10765 10350 c3 -5 13 -10 21 -10 8 0 12 5 9 10 -3 6 -13 10 -21 10
-8 0 -12 -4 -9 -10z"/>
<path d="M10817 10353 c-13 -12 -7 -23 12 -23 21 0 36 -26 20 -35 -13 -8 -2
-25 17 -25 18 0 9 46 -14 73 -16 18 -25 21 -35 10z"/>
<path d="M10725 10340 c4 -6 11 -8 16 -5 14 9 11 15 -7 15 -8 0 -12 -5 -9 -10z"/>
<path d="M10770 10316 c0 -9 5 -16 10 -16 6 0 10 4 10 9 0 6 -4 13 -10 16 -5
3 -10 -1 -10 -9z"/>
<path d="M10710 10310 c0 -5 4 -10 9 -10 6 0 13 5 16 10 3 6 -1 10 -9 10 -9 0
-16 -4 -16 -10z"/>
<path d="M10615 10301 c-3 -5 -1 -12 5 -16 5 -3 10 1 10 9 0 18 -6 21 -15 7z"/>
<path d="M10695 10270 c3 -5 12 -7 20 -3 21 7 19 13 -6 13 -11 0 -18 -4 -14
-10z"/>
<path d="M10780 10250 c0 -5 9 -10 19 -10 11 0 23 5 26 10 4 6 -5 10 -19 10
-14 0 -26 -4 -26 -10z"/>
<path d="M10708 10221 c-23 -22 -13 -33 17 -19 14 6 21 16 18 24 -7 18 -14 17
-35 -5z"/>
<path d="M10789 10203 c6 -12 11 -33 11 -47 0 -16 6 -26 14 -26 21 0 30 19 12
26 -8 3 -13 11 -10 18 3 7 -5 21 -17 32 -22 19 -22 19 -10 -3z"/>
<path d="M10877 10200 c-3 -13 0 -20 9 -20 8 0 14 9 14 20 0 11 -4 20 -9 20
-5 0 -11 -9 -14 -20z"/>
<path d="M7245 10170 c-3 -5 -1 -10 4 -10 6 0 11 5 11 10 0 6 -2 10 -4 10 -3
0 -8 -4 -11 -10z"/>
<path d="M10762 10120 c0 -14 2 -19 5 -12 2 6 2 18 0 25 -3 6 -5 1 -5 -13z"/>
<path d="M10881 10124 c-7 -8 -11 -18 -8 -21 9 -9 48 8 44 20 -5 17 -21 18
-36 1z"/>
<path d="M10970 10130 c0 -5 7 -10 15 -10 8 0 15 5 15 10 0 6 -7 10 -15 10 -8
0 -15 -4 -15 -10z"/>
<path d="M10732 10100 c0 -14 2 -19 5 -12 2 6 2 18 0 25 -3 6 -5 1 -5 -13z"/>
<path d="M10755 10080 c-3 -5 1 -10 9 -10 9 0 16 5 16 10 0 6 -4 10 -9 10 -6
0 -13 -4 -16 -10z"/>
<path d="M10808 10076 c-23 -17 -23 -29 3 -52 17 -16 22 -16 30 -4 5 8 7 21 4
28 -3 8 -5 20 -5 28 0 17 -10 17 -32 0z"/>
<path d="M10938 10073 c7 -3 16 -2 19 1 4 3 -2 6 -13 5 -11 0 -14 -3 -6 -6z"/>
<path d="M10960 10050 c0 -5 5 -10 10 -10 6 0 10 5 10 10 0 6 -4 10 -10 10 -5
0 -10 -4 -10 -10z"/>
<path d="M10700 10010 c0 -5 5 -10 11 -10 5 0 7 5 4 10 -3 6 -8 10 -11 10 -2
0 -4 -4 -4 -10z"/>
<path d="M10500 9954 c0 -8 5 -12 10 -9 6 3 10 10 10 16 0 5 -4 9 -10 9 -5 0
-10 -7 -10 -16z"/>
<path d="M10476 9925 c5 -12 -4 -15 -50 -15 -34 0 -56 -4 -56 -11 0 -6 -7 -9
-15 -5 -8 3 -15 0 -15 -7 0 -16 -68 -15 -97 1 -31 17 -49 16 -34 -2 15 -18
-16 -27 -65 -19 -19 3 -34 1 -34 -4 0 -5 -14 -8 -30 -5 -17 2 -37 -1 -45 -8
-11 -9 -37 -11 -94 -6 -63 5 -81 3 -91 -9 -14 -17 -35 -21 -25 -5 3 6 1 10 -5
10 -6 0 -9 -8 -6 -18 4 -12 -9 -35 -39 -69 -25 -28 -45 -55 -45 -60 0 -4 -4
-14 -9 -22 -8 -12 -12 -12 -25 -2 -14 12 -16 10 -16 -8 0 -11 -4 -21 -10 -21
-5 0 -10 11 -10 25 0 14 -4 25 -10 25 -5 0 -10 -15 -10 -32 0 -25 -3 -29 -10
-18 -9 13 -11 13 -19 0 -9 -12 -11 -12 -17 3 -9 25 -27 9 -20 -19 5 -17 2 -24
-8 -24 -8 0 -19 -15 -25 -32 -7 -18 -23 -50 -36 -70 -22 -34 -23 -38 -8 -38
16 -1 16 -2 -2 -15 -11 -8 -25 -18 -30 -23 -15 -12 -10 -225 4 -230 18 -6 12
-22 -7 -22 -17 0 -18 -7 -14 -57 3 -32 8 -60 13 -63 5 -3 6 -17 4 -31 -3 -18
2 -32 20 -47 14 -12 25 -33 25 -46 0 -23 51 -86 70 -86 4 0 30 -24 57 -54 27
-30 61 -58 76 -61 15 -4 27 -10 27 -14 0 -4 13 -14 29 -24 31 -18 76 -23 66
-8 -3 5 0 13 6 17 7 4 9 3 6 -3 -4 -6 0 -14 9 -17 29 -11 36 -6 31 20 -3 16 0
28 9 31 18 7 18 21 1 38 -8 7 -13 27 -12 44 1 16 -2 28 -7 25 -4 -3 -8 -1 -8
4 0 22 34 20 78 -5 42 -23 57 -26 130 -24 53 1 99 -4 128 -14 25 -8 57 -15 72
-15 99 -1 101 -2 92 -26 l-9 -23 113 0 113 1 35 33 c19 19 47 39 61 44 38 15
35 32 -3 21 -17 -5 -29 -6 -26 -2 2 4 13 28 24 53 24 52 60 90 50 52 -4 -16
-2 -20 8 -16 8 3 14 14 14 25 0 17 2 18 15 8 10 -8 29 -10 58 -6 54 9 59 9 77
5 8 -2 14 2 12 9 -1 7 9 17 23 22 17 6 25 17 25 33 0 17 8 25 33 32 24 7 33
17 35 35 5 40 24 70 45 70 16 0 18 4 12 23 -4 12 -9 37 -10 55 -1 19 -8 38
-15 42 -10 6 -9 9 1 14 11 5 11 7 2 12 -7 3 -13 12 -13 20 0 8 -6 14 -12 14
-8 1 -5 6 6 15 10 7 15 19 11 25 -4 6 0 19 9 29 9 10 14 25 10 35 -4 11 -1 16
10 16 9 0 16 6 16 13 0 17 -45 110 -62 128 -56 59 -97 113 -91 122 3 6 1 7 -5
3 -14 -9 -39 8 -117 79 -110 99 -120 106 -153 99 -24 -5 -32 -2 -41 15 -7 12
-17 21 -24 21 -7 0 -6 -4 3 -10 20 -13 6 -12 -65 5 -75 18 -76 18 -69 0z m-35
-437 c35 -10 39 -15 39 -43 0 -38 -10 -43 -110 -50 -36 -3 -114 -10 -173 -16
-60 -6 -111 -8 -114 -5 -4 3 4 6 17 6 19 0 20 2 10 15 -22 26 18 52 93 59 4 1
7 6 6 11 -1 11 94 32 155 34 21 0 56 -4 77 -11z m126 -5 c-4 -3 -2 -12 4 -20
9 -10 6 -13 -14 -13 -14 0 -33 -7 -41 -16 -15 -14 -16 -14 -16 1 0 9 9 19 20
22 11 3 20 12 20 19 0 8 8 14 17 14 9 0 13 -3 10 -7z m-154 -142 c7 -5 23 -11
36 -13 14 -1 26 -9 29 -16 2 -8 -2 -10 -15 -5 -17 7 -17 6 0 -20 l17 -27 -82
6 c-110 8 -180 5 -195 -8 -7 -6 -19 -8 -27 -5 -8 3 -17 -1 -20 -9 -4 -11 -11
-12 -32 -4 -18 7 -29 7 -33 1 -4 -5 -29 -16 -56 -23 -28 -7 -53 -17 -56 -22
-4 -5 -14 -6 -23 -3 -8 3 -18 2 -21 -3 -4 -6 -15 -10 -26 -10 -10 0 -19 -6
-19 -12 0 -7 -5 -5 -11 5 -13 22 -4 36 20 30 23 -6 39 16 20 28 -10 6 -3 9 20
9 25 0 32 4 27 15 -4 11 1 15 19 15 14 0 25 5 25 10 0 6 11 10 25 10 14 0 24
5 23 11 -3 11 20 21 87 38 45 12 255 13 268 2z m637 -101 c0 -5 -8 -10 -17
-10 -15 0 -16 2 -3 10 19 12 20 12 20 0z m-842 -76 c-8 -40 -68 -44 -68 -4 0
16 6 20 36 20 28 0 35 -4 32 -16z m862 6 c0 -5 -7 -10 -16 -10 -8 0 -12 5 -9
10 3 6 10 10 16 10 5 0 9 -4 9 -10z m-1006 -55 c4 -20 27 -60 52 -90 55 -69
44 -78 -59 -45 -40 13 -89 25 -109 27 -39 5 -48 16 -24 30 7 4 20 22 29 39 14
26 73 71 98 73 4 1 10 -15 13 -34z m484 -22 c12 -13 22 -28 22 -33 0 -20 -114
-80 -152 -80 l-21 0 21 23 c11 12 30 43 41 67 23 53 52 61 89 23z m-546 -183
c-3 -26 0 -40 7 -40 7 0 11 6 10 13 -6 44 1 57 30 57 17 0 33 -4 36 -10 3 -5
17 -10 31 -10 15 0 24 -6 24 -15 0 -20 -59 -20 -66 -1 -3 8 -11 17 -19 20 -9
3 -13 -5 -13 -30 0 -19 4 -37 9 -40 5 -3 6 2 3 10 -5 12 3 14 46 9 32 -3 50
-1 46 5 -3 5 2 16 12 24 20 18 72 29 72 16 0 -5 8 -4 19 1 19 11 31 6 31 -13
0 -6 -11 -11 -25 -11 -14 0 -25 3 -25 8 0 14 -24 7 -47 -15 -28 -26 -29 -34
-4 -34 11 0 17 5 14 13 -8 21 25 15 37 -6 5 -11 10 -22 10 -24 0 -8 -224 0
-255 9 -45 13 -95 46 -95 63 0 12 3 12 12 3 18 -18 34 -15 62 13 35 34 42 31
38 -15z m666 -5 c-3 -3 -9 2 -12 12 -6 14 -5 15 5 6 7 -7 10 -15 7 -18z m-38
-4 c0 -12 -20 -25 -27 -18 -7 7 6 27 18 27 5 0 9 -4 9 -9z m15 -47 c-23 -17
-46 -15 -53 5 -3 10 1 12 16 9 11 -3 26 -2 33 3 22 13 26 -1 4 -17z m-75 -11
l34 -16 -24 -9 c-19 -7 -28 -5 -37 8 -12 17 -17 34 -10 34 2 0 19 -7 37 -17z
m-50 -29 c0 -8 -4 -12 -10 -9 -5 3 -10 10 -10 16 0 5 5 9 10 9 6 0 10 -7 10
-16z m-90 -54 c0 -5 -4 -10 -10 -10 -5 0 -10 5 -10 10 0 6 5 10 10 10 6 0 10
-4 10 -10z"/>
<path d="M8010 9781 c-21 -6 -22 -8 -8 -14 10 -3 20 -2 23 3 3 5 13 6 22 3 11
-4 14 -3 9 5 -8 13 -10 13 -46 3z"/>
<path d="M8135 9770 c3 -5 8 -10 11 -10 2 0 4 5 4 10 0 6 -5 10 -11 10 -5 0
-7 -4 -4 -10z"/>
<path d="M8090 9766 c0 -2 8 -10 18 -17 15 -13 16 -12 3 4 -13 16 -21 21 -21
13z"/>
<path d="M9740 9760 c0 -5 -7 -10 -16 -10 -8 0 -12 -4 -9 -10 9 -15 19 -12 33
10 7 12 8 20 2 20 -5 0 -10 -4 -10 -10z"/>
<path d="M7970 9750 c0 -6 7 -10 15 -10 8 0 15 2 15 4 0 2 -7 6 -15 10 -8 3
-15 1 -15 -4z"/>
<path d="M8169 9740 c-13 -10 -19 -19 -13 -20 5 0 15 5 22 12 6 6 14 9 17 7 3
-3 -7 -12 -21 -19 -20 -11 -27 -11 -33 -2 -4 7 -15 10 -25 6 -10 -4 -25 1 -36
11 -15 13 -23 14 -39 5 -21 -11 -20 -30 0 -30 6 0 8 4 4 9 -9 15 16 24 28 11
9 -10 9 -14 -1 -17 -6 -3 -10 -9 -6 -14 7 -12 -29 -12 -41 0 -6 5 -21 11 -35
13 -19 2 -25 -1 -25 -16 0 -11 7 -22 15 -24 13 -5 13 -3 1 11 -11 15 -11 17 2
17 23 0 39 -24 25 -38 -19 -19 -33 -14 -61 19 -17 21 -31 29 -42 25 -11 -4
-15 -2 -12 6 2 8 17 12 36 10 17 -1 31 2 31 8 0 5 -3 10 -7 11 -5 0 -21 2 -38
4 -16 2 -34 0 -40 -5 -12 -10 -34 -8 -54 4 -10 7 -12 3 -6 -15 4 -13 13 -28
19 -32 8 -6 8 -10 -1 -14 -7 -2 -13 -10 -13 -16 0 -7 -12 -25 -26 -40 -23 -25
-28 -27 -43 -14 -14 13 -18 13 -30 0 -11 -12 -11 -14 0 -12 25 3 39 -1 39 -11
0 -5 -7 -10 -15 -10 -8 0 -23 -8 -33 -18 -10 -10 -27 -22 -37 -25 -10 -4 -15
-10 -12 -14 5 -5 42 11 118 52 11 5 19 13 19 17 0 5 10 8 21 8 19 0 21 4 16
30 -5 22 -3 30 8 30 8 0 15 4 15 9 0 8 23 6 60 -6 12 -4 12 -7 -4 -19 -18 -13
-16 -14 25 -14 35 -1 41 -3 26 -11 -10 -6 -35 -10 -55 -8 -49 3 -62 1 -62 -9
0 -5 22 -8 50 -8 27 1 50 -3 51 -9 0 -5 6 -16 12 -24 9 -11 5 -12 -23 -8 -19
3 -52 10 -72 15 -30 8 -40 7 -50 -6 -11 -13 -10 -15 6 -9 14 6 17 4 12 -8 -5
-13 -2 -14 15 -5 12 7 25 8 32 2 7 -5 37 -10 67 -11 128 -5 167 -8 178 -14 6
-4 44 -9 84 -11 49 -2 91 -11 123 -26 29 -13 77 -24 115 -27 36 -2 81 -11 101
-19 28 -12 44 -13 74 -5 20 5 50 7 66 4 17 -3 35 0 44 7 13 10 19 10 33 -4 25
-22 35 -20 27 4 -7 22 5 26 22 9 16 -16 67 16 59 37 -3 8 1 14 9 14 8 0 15 7
15 15 0 8 -4 15 -8 15 -14 0 -9 69 5 74 18 7 16 33 -3 40 -23 9 -24 8 -24 -14
0 -36 -40 0 -47 43 -3 21 -11 37 -19 37 -7 0 -17 8 -23 18 -9 16 -11 16 -25
-3 -14 -19 -17 -19 -43 -4 -20 11 -37 13 -58 8 -16 -5 -54 -6 -84 -3 -31 4
-60 6 -66 6 -5 -1 -23 -1 -40 -1 -95 -1 -126 -1 -182 -5 -57 -4 -63 -2 -63 15
0 24 -21 24 -51 -1z m-42 -46 c-3 -3 -12 -4 -19 -1 -8 3 -5 6 6 6 11 1 17 -2
13 -5z m68 -34 c-3 -5 -10 -10 -16 -10 -5 0 -9 5 -9 10 0 6 7 10 16 10 8 0 12
-4 9 -10z m-135 -10 c0 -5 -2 -10 -4 -10 -3 0 -8 5 -11 10 -3 6 -1 10 4 10 6
0 11 -4 11 -10z"/>
<path d="M9680 9736 c0 -3 9 -10 20 -16 11 -6 20 -8 20 -6 0 3 -9 10 -20 16
-11 6 -20 8 -20 6z"/>
<path d="M7788 9690 c-1 -5 -15 -11 -30 -12 -32 -3 -34 -7 -14 -34 14 -18 15
-18 45 11 17 17 31 33 31 38 0 11 -28 9 -32 -3z"/>
<path d="M7678 9593 c7 -3 16 -2 19 1 4 3 -2 6 -13 5 -11 0 -14 -3 -6 -6z"/>
<path d="M8907 9580 c3 -11 7 -20 9 -20 2 0 4 9 4 20 0 11 -4 20 -9 20 -5 0
-7 -9 -4 -20z"/>
<path d="M7585 9570 c-21 -24 -13 -39 11 -20 13 12 17 11 24 0 5 -8 12 -12 15
-8 7 6 -16 48 -26 48 -3 0 -14 -9 -24 -20z"/>
<path d="M7520 9515 c0 -7 -8 -19 -17 -24 -10 -6 -13 -11 -7 -11 5 0 15 5 22
12 7 7 12 9 12 4 0 -4 7 -1 15 8 20 20 19 26 -5 26 -11 0 -20 -7 -20 -15z"/>
<path d="M7508 9423 c7 -3 16 -2 19 1 4 3 -2 6 -13 5 -11 0 -14 -3 -6 -6z"/>
<path d="M9430 9360 c0 -5 5 -10 11 -10 5 0 7 5 4 10 -3 6 -8 10 -11 10 -2 0
-4 -4 -4 -10z"/>
<path d="M8275 9320 c3 -5 31 -10 61 -10 49 0 54 -2 55 -22 1 -18 2 -19 6 -5
6 24 27 16 31 -13 4 -21 1 -22 -35 -15 -21 3 -42 11 -47 16 -17 16 -26 10 -26
-16 0 -27 -17 -32 -128 -39 -34 -2 -68 -8 -75 -14 -7 -5 -27 -12 -44 -15 -18
-4 -52 -16 -75 -27 -23 -11 -49 -20 -59 -20 -9 0 -19 -7 -23 -15 -3 -8 -15
-15 -26 -15 -24 0 -129 -107 -130 -131 0 -10 11 -19 27 -22 23 -4 38 5 93 56
38 36 81 67 103 73 42 12 47 10 47 -23 0 -34 56 -119 93 -141 47 -28 87 -33
152 -17 64 14 92 40 126 114 15 30 19 53 14 77 -7 39 -4 40 33 17 57 -35 72
-55 72 -94 0 -37 -2 -38 -69 -71 l-69 -33 79 2 c78 2 146 11 164 21 5 3 17 7
26 7 29 2 69 34 69 55 0 13 -14 27 -39 40 -22 10 -53 36 -69 56 -30 36 -30 37
-11 57 25 27 24 30 -8 65 -44 45 -117 93 -159 103 -54 12 -167 12 -159 -1z
m225 -70 c14 -10 23 -21 20 -23 -3 -3 -18 6 -35 19 -35 28 -22 32 15 4z m-153
-22 c-3 -8 -6 -5 -6 6 -1 11 2 17 5 13 3 -3 4 -12 1 -19z m243 -38 c0 -5 -4
-10 -10 -10 -5 0 -10 5 -10 10 0 6 5 10 10 10 6 0 10 -4 10 -10z m-430 -98 c0
-15 -4 -32 -10 -38 -5 -5 -11 -20 -13 -34 -2 -13 -12 -29 -21 -34 -14 -9 -22
-5 -42 19 -13 17 -24 40 -24 52 0 28 45 63 81 63 25 0 29 -4 29 -28z m126 -29
c-10 -10 -19 5 -10 18 6 11 8 11 12 0 2 -7 1 -15 -2 -18z m411 -60 c5 -14 -40
-28 -57 -18 -8 5 -8 11 1 21 14 17 51 15 56 -3z m-97 -18 c0 -8 -7 -15 -15
-15 -16 0 -20 12 -8 23 11 12 23 8 23 -8z"/>
<path d="M8123 9313 c15 -2 39 -2 55 0 15 2 2 4 -28 4 -30 0 -43 -2 -27 -4z"/>
<path d="M7780 9162 c-28 -27 -50 -54 -50 -62 0 -7 1 -11 3 -9 1 2 27 30 57
62 66 69 59 76 -10 9z"/>
<path d="M8627 9157 c-4 -10 4 -22 19 -32 24 -16 25 -16 15 2 -24 42 -28 46
-34 30z"/>
<path d="M7160 9034 c0 -8 5 -12 10 -9 6 3 10 10 10 16 0 5 -4 9 -10 9 -5 0
-10 -7 -10 -16z"/>
<path d="M7850 8971 c0 -11 26 -22 34 -14 3 3 3 10 0 14 -7 12 -34 11 -34 0z"/>
<path d="M8440 8889 c0 -14 27 -16 55 -4 l30 12 -42 0 c-24 -1 -43 -4 -43 -8z"/>
<path d="M8336 8872 c-2 -4 7 -12 20 -19 14 -6 26 -7 30 -2 3 5 -2 9 -10 9 -9
0 -16 5 -16 10 0 12 -17 13 -24 2z"/>
<path d="M8275 8859 c-10 -15 3 -25 16 -12 7 7 7 13 1 17 -6 3 -14 1 -17 -5z"/>
<path d="M11919 8823 c-8 -8 -36 -31 -63 -51 -28 -21 -59 -52 -70 -71 l-20
-34 23 -16 c13 -8 34 -32 48 -54 24 -38 51 -46 45 -13 -5 27 24 18 38 -11 30
-67 50 -161 51 -249 1 -62 6 -99 15 -111 7 -10 14 -34 14 -54 0 -55 -38 -234
-70 -329 -16 -47 -31 -96 -34 -110 -3 -14 -17 -38 -31 -55 -16 -17 -22 -31
-15 -33 6 -2 17 4 25 14 14 20 20 14 27 -30 7 -47 42 45 95 252 56 214 56 219
56 357 0 93 -8 182 -22 265 -11 69 -25 162 -31 208 -12 106 -48 161 -81 125z"/>
<path d="M9903 8800 c0 -19 5 -30 14 -30 10 0 13 9 11 27 -4 37 -25 40 -25 3z"/>
<path d="M6890 8811 c0 -12 118 -91 134 -91 6 0 -2 8 -19 18 -16 11 -36 27
-44 36 -19 23 -71 49 -71 37z"/>
<path d="M9945 8780 c-3 -5 -1 -10 4 -10 6 0 11 5 11 10 0 6 -2 10 -4 10 -3 0
-8 -4 -11 -10z"/>
<path d="M10395 8713 c-11 -3 -24 -10 -30 -15 -7 -7 -2 -9 15 -4 14 3 36 6 50
6 20 0 22 2 10 10 -8 5 -17 9 -20 9 -3 -1 -14 -3 -25 -6z"/>
<path d="M7140 8681 c0 -11 5 -23 10 -26 6 -4 10 5 10 19 0 14 -4 26 -10 26
-5 0 -10 -9 -10 -19z"/>
<path d="M9518 8060 c-48 -12 -112 -54 -126 -83 -20 -42 -59 -182 -54 -195 5
-15 42 -6 58 14 6 8 31 21 55 30 46 16 188 36 201 28 4 -3 -1 -22 -12 -42 -26
-48 -25 -54 8 -46 118 28 199 77 216 132 7 21 6 21 -21 7 -33 -17 -53 -19 -53
-5 0 6 -9 10 -20 10 -17 0 -20 7 -20 40 0 32 -7 48 -32 75 -30 31 -40 35 -98
39 -36 3 -82 1 -102 -4z"/>
<path d="M8832 7999 c-45 -22 -69 -56 -59 -82 3 -8 26 -18 53 -22 26 -3 64
-18 85 -32 41 -27 40 -27 109 26 25 18 58 39 73 46 l29 12 -31 26 c-57 48
-188 61 -259 26z"/>
<path d="M7149 7939 c-8 -108 -6 -235 3 -240 8 -5 8 -15 -1 -36 -12 -29 -14
-67 -11 -169 3 -79 13 -97 33 -57 9 16 23 35 31 42 22 19 20 38 -5 46 -14 5
-18 12 -13 23 9 21 9 35 1 152 -10 149 -34 297 -38 239z"/>
<path d="M9670 7710 c0 -5 5 -10 11 -10 5 0 7 5 4 10 -3 6 -8 10 -11 10 -2 0
-4 -4 -4 -10z"/>
<path d="M11130 7630 c0 -5 7 -10 16 -10 8 0 12 5 9 10 -3 6 -10 10 -16 10 -5
0 -9 -4 -9 -10z"/>
<path d="M11091 7584 c0 -11 3 -14 6 -6 3 7 2 16 -1 19 -3 4 -6 -2 -5 -13z"/>
<path d="M9940 7580 c-8 -5 -10 -10 -5 -10 6 0 17 5 25 10 8 5 11 10 5 10 -5
0 -17 -5 -25 -10z"/>
<path d="M9985 7570 c-3 -5 -1 -10 4 -10 6 0 11 5 11 10 0 6 -2 10 -4 10 -3 0
-8 -4 -11 -10z"/>
<path d="M11195 7569 c-10 -15 3 -25 16 -12 7 7 7 13 1 17 -6 3 -14 1 -17 -5z"/>
<path d="M10930 7550 c6 -11 15 -18 21 -14 6 4 6 11 -2 20 -17 21 -31 17 -19
-6z"/>
<path d="M11770 7540 c0 -5 5 -10 10 -10 6 0 10 5 10 10 0 6 -4 10 -10 10 -5
0 -10 -4 -10 -10z"/>
<path d="M8752 7531 c-13 -8 -6 -41 8 -41 14 0 18 13 11 32 -4 11 -11 14 -19
9z"/>
<path d="M8697 7485 c-14 -19 -15 -25 -4 -25 14 0 47 31 47 43 0 16 -26 4 -43
-18z"/>
<path d="M10954 7499 c-3 -6 -1 -16 5 -22 8 -8 11 -5 11 11 0 24 -5 28 -16 11z"/>
<path d="M11132 7480 c0 -14 2 -19 5 -12 2 6 2 18 0 25 -3 6 -5 1 -5 -13z"/>
<path d="M8625 7430 c-3 -5 -1 -10 4 -10 6 0 11 5 11 10 0 6 -2 10 -4 10 -3 0
-8 -4 -11 -10z"/>
<path d="M11827 7410 c-3 -11 -2 -20 3 -20 4 0 10 9 13 20 3 11 2 20 -3 20 -4
0 -10 -9 -13 -20z"/>
<path d="M11810 7366 c-6 -9 -10 -21 -8 -28 3 -8 9 -4 17 10 15 28 9 39 -9 18z"/>
<path d="M10355 7340 c3 -5 11 -10 16 -10 6 0 7 5 4 10 -3 6 -11 10 -16 10 -6
0 -7 -4 -4 -10z"/>
<path d="M10765 7330 c3 -5 8 -10 11 -10 2 0 4 5 4 10 0 6 -5 10 -11 10 -5 0
-7 -4 -4 -10z"/>
<path d="M10900 7321 c0 -5 7 -11 15 -15 8 -3 15 -1 15 3 0 5 -7 11 -15 15 -8
3 -15 1 -15 -3z"/>
<path d="M10430 7300 c0 -5 5 -10 11 -10 5 0 7 5 4 10 -3 6 -8 10 -11 10 -2 0
-4 -4 -4 -10z"/>
<path d="M10860 7240 c0 -11 7 -20 15 -20 17 0 18 2 9 24 -9 23 -24 20 -24 -4z"/>
<path d="M8481 7149 c-12 -12 -20 -24 -16 -27 3 -3 17 6 31 21 29 32 18 36
-15 6z"/>
<path d="M9300 7145 c0 -8 5 -15 10 -15 6 0 10 7 10 15 0 8 -4 15 -10 15 -5 0
-10 -7 -10 -15z"/>
<path d="M8140 6920 c0 -5 5 -10 10 -10 6 0 10 5 10 10 0 6 -4 10 -10 10 -5 0
-10 -4 -10 -10z"/>
<path d="M8120 6879 c0 -11 4 -18 10 -14 5 3 7 12 3 20 -7 21 -13 19 -13 -6z"/>
<path d="M9690 6869 c0 -5 5 -7 10 -4 6 3 10 8 10 11 0 2 -4 4 -10 4 -5 0 -10
-5 -10 -11z"/>
<path d="M8110 6839 c0 -5 5 -7 10 -4 6 3 10 8 10 11 0 2 -4 4 -10 4 -5 0 -10
-5 -10 -11z"/>
<path d="M7410 6730 c0 -5 5 -10 10 -10 6 0 10 5 10 10 0 6 -4 10 -10 10 -5 0
-10 -4 -10 -10z"/>
<path d="M9670 6689 c0 -5 5 -7 10 -4 6 3 10 8 10 11 0 2 -4 4 -10 4 -5 0 -10
-5 -10 -11z"/>
<path d="M7375 6681 c-6 -11 9 -23 19 -14 9 9 7 23 -3 23 -6 0 -12 -4 -16 -9z"/>
<path d="M9703 6666 c-23 -20 -26 -28 -17 -43 6 -10 20 -20 30 -22 18 -3 18
-3 1 16 -19 21 -12 33 26 46 10 4 15 11 12 17 -10 15 -21 12 -52 -14z"/>
<path d="M7586 6665 c-3 -8 -1 -15 4 -15 6 0 10 7 10 15 0 8 -2 15 -4 15 -2 0
-6 -7 -10 -15z"/>
<path d="M9820 6666 c0 -9 5 -16 10 -16 6 0 10 4 10 9 0 6 -4 13 -10 16 -5 3
-10 -1 -10 -9z"/>
<path d="M7421 6654 c0 -11 3 -14 6 -6 3 7 2 16 -1 19 -3 4 -6 -2 -5 -13z"/>
<path d="M7475 6653 c-4 -13 -11 -23 -16 -23 -5 0 -9 -4 -9 -10 0 -5 4 -10 10
-10 13 0 32 39 26 53 -2 7 -8 2 -11 -10z"/>
<path d="M9784 6635 c-3 -8 -3 -19 1 -25 11 -18 25 -11 25 15 0 27 -17 34 -26
10z"/>
<path d="M9521 6611 c-9 -6 -8 -10 5 -15 14 -5 15 -9 5 -19 -10 -9 -15 -8 -27
7 -14 20 -19 13 -15 -26 2 -20 0 -21 -23 -12 -9 3 -16 14 -16 24 0 11 -5 22
-12 26 -7 5 -9 2 -5 -9 6 -17 -15 -30 -36 -21 -10 4 -12 -3 -9 -26 2 -18 0
-30 -7 -30 -6 0 -9 15 -7 39 3 28 0 41 -11 45 -11 5 -13 1 -8 -17 6 -18 5 -20
-6 -9 -20 19 -29 14 -29 -16 0 -16 9 -37 20 -47 11 -10 20 -24 20 -31 0 -15
46 -64 54 -57 2 3 2 -4 -1 -16 -6 -23 -23 -29 -23 -7 0 7 -28 49 -62 92 -45
56 -64 74 -66 62 -4 -23 -28 -23 -40 -1 -6 10 -16 14 -26 10 -10 -4 -16 -1
-16 8 0 27 -18 16 -25 -15 -4 -19 -12 -29 -23 -28 -45 3 -72 -3 -72 -17 0 -18
-16 -20 -23 -2 -3 6 -6 -3 -6 -20 -1 -35 14 -45 22 -15 3 9 5 -3 6 -27 1 -38
3 -42 16 -31 15 13 29 8 31 -11 1 -5 2 -14 3 -19 1 -7 7 -7 21 0 17 9 22 7 32
-14 6 -14 15 -23 19 -20 5 3 9 0 9 -5 0 -6 14 -11 30 -11 26 0 30 3 30 29 0
41 32 47 59 10 12 -15 21 -35 21 -43 0 -9 9 -20 20 -26 16 -9 20 -21 20 -66 0
-30 4 -53 8 -50 13 8 8 112 -6 128 -10 12 -9 18 3 28 12 10 15 10 15 -3 0 -8
11 -22 25 -31 14 -9 25 -24 25 -33 0 -12 3 -14 11 -6 8 8 5 22 -10 51 -22 42
-28 69 -11 42 8 -12 11 -11 16 8 5 16 11 21 25 17 13 -4 19 -1 19 9 0 20 19
20 44 1 39 -29 49 -20 44 40 -3 40 -1 55 8 55 7 0 15 -10 17 -22 l4 -23 2 23
c1 28 15 28 42 1 24 -24 39 -17 18 8 -8 10 -22 35 -31 55 -15 32 -15 38 -2 48
18 16 18 30 -1 30 -8 0 -15 -7 -15 -15 0 -19 -18 -20 -22 0 -2 11 -7 12 -18 4
-11 -8 -12 -12 -2 -16 6 -2 12 -11 12 -20 0 -23 -24 -10 -41 24 -10 21 -20 29
-28 24z m99 -87 c0 -8 -5 -12 -10 -9 -6 4 -8 11 -5 16 9 14 15 11 15 -7z
m-330 -25 c0 -11 -4 -18 -10 -14 -5 3 -7 12 -3 20 7 21 13 19 13 -6z m-38 -54
c0 -5 -5 -11 -11 -13 -6 -2 -11 4 -11 13 0 9 5 15 11 13 6 -2 11 -8 11 -13z
m-25 -67 c-3 -8 -6 -5 -6 6 -1 11 2 17 5 13 3 -3 4 -12 1 -19z m128 12 c11
-17 -5 -32 -21 -19 -8 6 -14 15 -14 20 0 12 27 11 35 -1z"/>
<path d="M9820 6611 c0 -6 5 -13 10 -16 6 -3 10 1 10 9 0 9 -4 16 -10 16 -5 0
-10 -4 -10 -9z"/>
<path d="M7750 6600 c0 -5 5 -10 10 -10 6 0 10 5 10 10 0 6 -4 10 -10 10 -5 0
-10 -4 -10 -10z"/>
<path d="M7690 6581 c0 -5 9 -7 20 -4 11 3 20 7 20 9 0 2 -9 4 -20 4 -11 0
-20 -4 -20 -9z"/>
<path d="M9657 6576 c-3 -7 0 -24 7 -37 8 -13 21 -37 30 -54 10 -20 16 -24 16
-12 0 9 3 16 8 16 40 -7 43 18 3 32 -19 7 -33 21 -40 40 -11 32 -16 36 -24 15z"/>
<path d="M9720 6550 c0 -6 12 -15 26 -20 33 -13 34 -13 34 4 0 7 -10 16 -22
20 -32 8 -38 7 -38 -4z"/>
<path d="M9807 6554 c-8 -8 1 -24 14 -24 5 0 9 7 9 15 0 15 -12 20 -23 9z"/>
<path d="M7512 6539 c2 -7 10 -15 17 -17 8 -3 12 1 9 9 -2 7 -10 15 -17 17 -8
3 -12 -1 -9 -9z"/>
<path d="M7640 6510 c-6 -11 -9 -29 -7 -38 4 -13 5 -13 6 4 0 11 6 25 13 32 6
6 9 14 6 18 -4 3 -12 -4 -18 -16z"/>
<path d="M7685 6499 c-8 -23 -1 -34 14 -24 13 8 15 45 2 45 -5 0 -13 -9 -16
-21z"/>
<path d="M7510 6500 c-12 -8 -11 -13 8 -39 25 -35 29 -83 7 -101 -18 -15 -19
-30 -2 -30 15 0 40 37 32 50 -3 4 0 10 5 12 6 2 13 20 17 41 5 34 4 37 -17 35
-17 -2 -25 3 -29 19 -5 17 -10 20 -21 13z"/>
<path d="M7677 6425 c-10 -7 -17 -21 -15 -30 2 -13 8 -10 26 14 24 33 19 40
-11 16z"/>
<path d="M7790 6429 c0 -5 5 -7 10 -4 6 3 10 8 10 11 0 2 -4 4 -10 4 -5 0 -10
-5 -10 -11z"/>
<path d="M8207 6423 c-4 -3 -7 -11 -7 -17 0 -6 5 -5 12 2 6 6 9 14 7 17 -3 3
-9 2 -12 -2z"/>
<path d="M9276 6335 c-9 -26 -7 -32 5 -12 6 10 9 21 6 23 -2 3 -7 -2 -11 -11z"/>
<path d="M9925 6321 c-3 -5 -1 -12 5 -16 12 -7 30 2 30 16 0 12 -27 12 -35 0z"/>
<path d="M8110 6300 c0 -5 7 -10 15 -10 8 0 15 5 15 10 0 6 -7 10 -15 10 -8 0
-15 -4 -15 -10z"/>
<path d="M9300 6295 c0 -8 5 -15 10 -15 6 0 10 7 10 15 0 8 -4 15 -10 15 -5 0
-10 -7 -10 -15z"/>
<path d="M9400 6273 c0 -5 5 -15 10 -23 8 -12 10 -11 10 8 0 12 -4 22 -10 22
-5 0 -10 -3 -10 -7z"/>
<path d="M7553 6253 c-15 -5 -18 -43 -4 -43 9 0 26 39 19 44 -1 2 -9 1 -15 -1z"/>
<path d="M8130 6245 c-8 -9 -8 -15 -2 -15 12 0 26 19 19 26 -2 2 -10 -2 -17
-11z"/>
<path d="M9172 6235 c0 -16 2 -22 5 -12 2 9 2 23 0 30 -3 6 -5 -1 -5 -18z"/>
<path d="M9462 6239 c2 -7 10 -15 17 -17 8 -3 12 1 9 9 -2 7 -10 15 -17 17 -8
3 -12 -1 -9 -9z"/>
<path d="M9410 6220 c0 -5 5 -10 10 -10 6 0 10 5 10 10 0 6 -4 10 -10 10 -5 0
-10 -4 -10 -10z"/>
<path d="M9770 6222 c0 -12 19 -26 26 -19 2 2 -2 10 -11 17 -9 8 -15 8 -15 2z"/>
<path d="M8087 6182 c-10 -21 -15 -45 -12 -54 8 -20 35 -12 35 11 0 14 -2 14
-10 1 -6 -9 -10 -10 -10 -3 0 14 19 27 39 28 8 0 15 6 17 13 1 7 0 8 -3 2 -9
-19 -23 -10 -23 15 0 36 -12 31 -33 -13z"/>
<path d="M9440 6195 c0 -11 8 -29 16 -40 15 -19 15 -19 8 10 -8 37 -24 57 -24
30z"/>
<path d="M7847 6183 c-4 -3 -7 -12 -7 -20 0 -11 4 -11 20 -3 11 6 18 15 15 21
-7 11 -19 12 -28 2z"/>
<path d="M9340 6114 c0 -8 4 -13 9 -9 5 3 12 -4 16 -15 3 -11 14 -20 23 -20
12 0 9 8 -13 30 -33 35 -35 35 -35 14z"/>
<path d="M7810 6094 c0 -8 5 -12 10 -9 6 3 10 10 10 16 0 5 -4 9 -10 9 -5 0
-10 -7 -10 -16z"/>
<path d="M8240 6034 c0 -8 5 -12 10 -9 6 3 10 10 10 16 0 5 -4 9 -10 9 -5 0
-10 -7 -10 -16z"/>
<path d="M8932 6010 c-24 -38 -28 -60 -12 -60 6 0 10 8 10 17 0 9 7 24 16 34
9 10 14 24 12 31 -3 8 -13 -1 -26 -22z"/>
<path d="M8217 5975 c-9 -19 -13 -35 -9 -35 4 0 15 16 24 35 8 19 12 35 9 35
-4 0 -15 -16 -24 -35z"/>
<path d="M8423 5968 c-15 -20 -23 -48 -14 -48 10 0 26 19 34 43 7 20 -6 23
-20 5z"/>
<path d="M8650 5866 c0 -9 5 -16 10 -16 6 0 10 4 10 9 0 6 -4 13 -10 16 -5 3
-10 -1 -10 -9z"/>
<path d="M8450 5856 c0 -9 5 -16 10 -16 6 0 10 4 10 9 0 6 -4 13 -10 16 -5 3
-10 -1 -10 -9z"/>
<path d="M8415 5850 c3 -5 8 -10 11 -10 2 0 4 5 4 10 0 6 -5 10 -11 10 -5 0
-7 -4 -4 -10z"/>
<path d="M8688 5853 c7 -3 16 -2 19 1 4 3 -2 6 -13 5 -11 0 -14 -3 -6 -6z"/>
<path d="M7474 4588 c-16 -12 -58 -45 -94 -74 -36 -28 -89 -63 -117 -78 -32
-16 -58 -38 -68 -55 -8 -17 -37 -49 -65 -73 -28 -24 -55 -57 -60 -74 -22 -67
3 -301 40 -375 25 -49 25 -94 0 -126 -15 -19 -18 -35 -14 -66 3 -23 1 -55 -4
-72 -10 -34 -39 -45 -49 -18 -8 23 -33 53 -45 53 -17 0 -7 -60 16 -87 43 -52
48 -70 30 -98 -22 -33 -48 -32 -94 5 -36 29 -70 39 -70 21 0 -29 27 -72 65
-105 25 -20 52 -51 61 -69 17 -32 71 -87 85 -87 8 0 69 -84 69 -94 0 -3 -11
-6 -25 -6 -29 0 -29 -2 -11 -66 8 -27 21 -80 31 -119 17 -70 22 -84 77 -201
24 -53 28 -74 28 -151 0 -194 -29 -305 -101 -387 -28 -33 -28 -34 -32 -182 -3
-97 -10 -173 -22 -217 -13 -52 -14 -74 -6 -95 23 -58 33 -176 35 -389 0 -123
5 -223 9 -223 5 0 6 -8 2 -17 -4 -10 -11 -52 -17 -93 -7 -62 -15 -81 -43 -115
-29 -37 -34 -50 -40 -121 -4 -49 -3 -90 4 -106 l11 -28 357 0 c640 0 2016 20
2027 29 19 15 68 16 128 2 47 -12 223 -12 1070 -3 557 7 1821 19 2808 27 987
9 1832 18 1878 21 l82 6 0 47 c0 47 -32 158 -64 219 -9 17 -22 60 -30 94 -29
129 -145 548 -194 698 -28 85 -72 220 -97 300 -25 80 -66 201 -92 270 -25 69
-55 159 -68 200 -34 111 -119 318 -190 462 -162 326 -253 429 -533 602 -126
78 -171 92 -363 111 -295 30 -499 75 -864 190 -302 95 -400 115 -680 135 -209
16 -641 111 -832 184 -48 18 -144 45 -212 60 -130 28 -194 51 -238 86 -14 11
-30 20 -34 20 -5 0 -9 -77 -9 -171 0 -176 -6 -209 -40 -209 -22 0 -52 -39 -71
-94 -17 -48 -52 -74 -74 -56 -8 7 -15 20 -15 30 0 30 -81 31 -115 2 -15 -12
-30 -20 -35 -17 -5 3 -14 -4 -20 -15 -6 -11 -17 -20 -25 -20 -9 0 -23 -9 -32
-20 -10 -11 -22 -20 -28 -20 -19 -1 -52 -94 -64 -178 -11 -89 -27 -127 -75
-184 -34 -39 -53 -96 -80 -238 -13 -70 -14 -86 -3 -97 11 -11 23 -7 73 25 32
21 65 46 73 55 7 10 39 24 70 33 31 9 61 21 68 26 6 5 55 9 109 9 94 1 98 0
119 -27 16 -20 27 -26 44 -21 26 7 23 -9 -10 -52 -11 -14 -35 -47 -52 -73
-142 -213 -281 -373 -447 -512 -110 -92 -150 -121 -295 -216 -66 -43 -159
-112 -208 -153 -54 -47 -100 -78 -120 -82 -17 -3 -53 -15 -79 -27 l-47 -21
-323 107 c-185 62 -353 124 -393 145 -264 143 -482 286 -605 397 -25 22 -83
70 -130 106 -167 129 -441 396 -543 528 -31 41 -81 105 -110 142 -38 49 -65
100 -100 190 -26 68 -47 137 -47 155 0 17 -7 67 -15 110 -28 144 -16 243 39
326 20 28 67 97 106 152 74 103 109 167 110 198 0 23 -11 22 -46 -5z m3596
-385 c0 -13 -3 -13 -15 -3 -8 7 -15 19 -15 27 0 13 3 13 15 3 8 -7 15 -19 15
-27z m-490 -437 c0 -3 -4 -8 -10 -11 -5 -3 -10 -1 -10 4 0 6 5 11 10 11 6 0
10 -2 10 -4z m-3210 -831 c8 -11 18 -27 22 -37 6 -14 3 -17 -15 -15 -20 2 -22
-2 -19 -41 2 -26 11 -51 23 -63 10 -10 19 -26 19 -34 0 -23 -32 -18 -60 10
-53 51 -53 52 -39 108 7 29 12 70 11 91 l-3 40 23 -20 c13 -10 30 -28 38 -39z
m210 -235 c21 0 190 -165 190 -185 0 -3 -13 -5 -29 -5 -17 0 -33 -4 -36 -10
-9 -15 -65 -12 -65 3 0 7 -12 21 -26 32 -14 10 -35 32 -46 47 -19 28 -19 30
-3 48 16 17 16 21 1 42 -9 12 -16 29 -15 38 0 10 2 11 6 3 2 -7 13 -13 23 -13z
m-75 -19 c3 -5 -2 -17 -11 -25 -18 -18 -17 -18 -38 -10 -13 5 -12 9 7 25 25
21 33 23 42 10z m15 -71 c0 -5 -2 -10 -4 -10 -3 0 -8 5 -11 10 -3 6 -1 10 4
10 6 0 11 -4 11 -10z m1320 -556 c0 -14 -4 -23 -10 -19 -5 3 -10 15 -10 26 0
10 5 19 10 19 6 0 10 -12 10 -26z"/>
<path d="M6987 4355 c-32 -13 -83 -39 -115 -57 -31 -18 -75 -43 -97 -56 -22
-12 -60 -32 -85 -43 -353 -163 -562 -274 -680 -365 -30 -23 -75 -53 -100 -66
-127 -70 -163 -95 -155 -108 5 -8 36 -7 53 4 7 4 12 1 12 -8 0 -21 27 -20 39
2 6 9 11 11 11 5 0 -18 83 -5 140 21 87 40 196 124 211 164 8 21 13 23 56 17
27 -3 58 -8 69 -10 22 -5 39 7 111 75 23 22 45 40 50 40 4 1 25 25 46 55 21
30 43 55 50 55 13 0 52 37 93 88 14 17 32 32 41 32 8 0 24 5 36 12 12 7 27 13
32 14 6 1 19 5 30 10 14 5 8 -6 -18 -33 -29 -30 -45 -62 -71 -144 -19 -57 -42
-124 -51 -148 -9 -24 -15 -58 -13 -75 2 -26 7 -31 28 -31 22 0 26 6 33 45 18
98 41 178 72 245 31 69 32 70 95 95 50 20 68 32 83 60 11 19 35 52 53 73 57
63 40 73 -59 32z"/>
<path d="M10810 4195 c-7 -18 -7 -33 1 -48 l12 -21 19 24 c22 28 20 63 -4 68
-12 2 -21 -6 -28 -23z"/>
<path d="M6506 3703 c-9 -9 -57 -16 -131 -18 -94 -3 -99 -4 -125 -28 -14 -13
-38 -32 -53 -42 -15 -10 -26 -23 -24 -29 2 -6 -8 -16 -21 -24 -21 -10 -28 -10
-44 4 -10 10 -21 14 -25 11 -3 -4 -1 -7 5 -7 7 0 12 -4 12 -10 0 -5 -14 -10
-32 -10 -17 0 -51 -11 -75 -26 -24 -14 -47 -23 -52 -20 -10 6 -34 -5 -98 -47
-24 -15 -46 -27 -50 -27 -3 0 -38 -15 -77 -33 -39 -19 -96 -42 -126 -52 -30
-10 -77 -29 -105 -43 -28 -13 -72 -25 -100 -27 -27 -1 -91 -14 -142 -29 -51
-14 -105 -26 -121 -26 -39 0 -50 26 -22 53 38 35 13 30 -86 -18 -54 -26 -127
-56 -163 -66 -36 -10 -91 -29 -121 -41 -30 -13 -99 -36 -153 -53 -54 -16 -98
-34 -97 -40 0 -6 24 -9 53 -7 l52 2 -24 -20 c-13 -11 -28 -20 -35 -20 -20 0
-90 -72 -107 -110 -15 -33 -22 -38 -62 -44 -24 -4 -51 -15 -59 -24 -20 -23
-30 -54 -21 -61 5 -3 28 -30 52 -59 25 -30 61 -70 80 -91 59 -59 88 -104 132
-198 22 -48 56 -119 74 -158 18 -38 36 -86 39 -106 4 -20 24 -78 46 -129 22
-52 53 -134 69 -184 17 -50 51 -145 76 -211 26 -66 53 -141 61 -166 7 -25 26
-64 40 -85 32 -46 43 -78 54 -159 5 -33 13 -80 19 -105 6 -25 17 -79 26 -120
8 -41 24 -104 34 -140 18 -58 48 -175 65 -252 5 -21 12 -28 31 -28 13 0 27 5
30 10 3 6 19 10 36 10 16 0 29 -4 29 -10 0 -6 29 -10 66 -10 51 0 70 4 79 17
12 16 14 16 41 -2 27 -17 51 -18 514 -11 552 8 513 0 531 97 5 30 13 68 16 84
3 17 9 35 13 40 4 6 13 28 20 50 14 45 48 85 103 121 21 13 45 41 55 62 9 20
27 45 40 55 12 10 22 24 22 31 0 7 7 28 16 45 20 40 8 97 -19 95 -12 -1 -17 6
-17 22 0 35 -15 29 -34 -15 -17 -36 -35 -51 -77 -64 -10 -3 -23 -37 -38 -98
-35 -141 -33 -139 -83 -138 -53 1 -87 12 -69 23 14 9 -3 36 -24 36 -7 0 -15 9
-18 20 -4 15 0 20 14 20 11 0 19 7 19 16 0 16 -29 59 -42 62 -9 2 -11 9 -6 24
3 7 10 5 20 -6 23 -23 28 -20 28 15 0 44 29 151 46 170 7 8 17 30 20 47 4 17
13 37 20 43 8 6 14 18 14 25 0 8 5 14 10 14 6 0 10 -6 10 -14 0 -8 17 -20 38
-26 20 -7 45 -22 54 -34 17 -21 18 -21 18 16 0 20 5 40 10 43 6 3 10 22 10 42
0 29 -3 34 -17 29 -10 -4 -14 -4 -10 0 4 4 0 12 -8 18 -24 18 -35 69 -19 91
19 25 18 55 -1 55 -14 0 -14 3 0 30 8 16 15 47 15 68 0 40 9 62 45 116 11 16
18 39 17 51 -2 12 7 30 23 43 14 13 35 44 46 70 19 45 20 48 3 117 -9 38 -22
81 -29 95 -9 17 -10 42 -4 80 4 30 8 78 8 105 1 38 6 55 21 68 11 9 20 22 20
29 0 7 14 40 30 72 17 32 30 67 30 77 0 10 14 27 30 39 17 12 30 29 30 39 0 9
5 22 10 27 6 6 15 33 20 60 4 27 11 58 15 69 3 11 0 29 -9 40 -14 20 -15 19
-48 -12 -19 -18 -38 -33 -43 -33 -6 0 -21 -9 -35 -20 -14 -11 -35 -20 -47 -20
-32 0 -53 -10 -53 -26 0 -8 -4 -14 -9 -14 -5 0 -11 -10 -15 -22 -7 -29 -62
-88 -81 -88 -8 0 -20 -8 -27 -17 -24 -33 -164 -117 -179 -108 -5 4 -14 -5 -21
-19 -6 -14 -15 -26 -19 -26 -5 0 -23 -16 -40 -35 -18 -19 -39 -37 -48 -40 -9
-3 -21 -13 -26 -24 -19 -36 -74 -126 -83 -136 -5 -6 -12 -24 -16 -40 -4 -17
-21 -58 -37 -93 -16 -35 -29 -72 -29 -83 0 -10 -9 -24 -20 -31 -11 -7 -20 -22
-20 -33 0 -11 -7 -31 -16 -43 -9 -13 -28 -57 -43 -100 -15 -42 -35 -92 -44
-111 -9 -19 -17 -40 -17 -47 0 -13 -94 -301 -122 -374 -7 -19 -21 -42 -30 -52
-10 -10 -18 -25 -18 -33 0 -8 -4 -15 -10 -15 -5 0 -10 -16 -10 -36 0 -27 -5
-37 -20 -41 -11 -3 -20 -13 -20 -22 0 -9 -9 -27 -20 -41 -11 -14 -20 -28 -20
-32 0 -4 -5 -19 -12 -35 -6 -15 -13 -39 -15 -53 -12 -81 -26 -130 -37 -130 -7
0 -18 -10 -25 -22 -42 -82 -72 -111 -92 -91 -7 7 -9 22 -4 40 6 21 9 23 12 10
8 -34 21 -16 16 22 -3 21 2 71 12 112 9 41 19 87 22 104 7 40 39 101 57 108 8
3 16 21 18 39 2 25 7 33 21 31 15 -1 18 4 14 24 -2 13 1 30 8 36 7 7 18 30 26
50 11 32 11 46 -3 99 -19 71 -17 144 6 208 9 25 16 58 16 73 0 15 9 47 20 69
11 23 20 52 20 65 0 33 27 83 45 83 8 0 15 7 15 15 0 8 4 15 8 15 5 0 17 18
27 40 10 22 22 40 27 40 4 0 8 7 8 16 0 9 8 28 19 42 10 15 22 52 26 82 4 30
11 62 16 71 5 10 3 21 -4 28 -9 10 -8 15 6 25 9 7 17 22 17 33 0 11 9 28 20
38 11 10 19 27 18 39 -2 32 34 176 45 176 20 0 67 63 67 90 0 16 7 30 15 34
22 8 48 74 42 105 -3 15 6 59 20 99 13 41 22 76 20 79 -8 7 14 63 24 63 5 0 9
36 9 80 0 47 4 80 10 80 6 0 10 5 10 11 0 7 10 22 23 34 12 12 29 30 38 41 9
10 25 24 35 31 18 12 18 13 2 26 -25 19 -23 26 15 58 25 22 28 28 14 29 -15 0
-18 7 -15 42 2 31 8 44 21 46 9 2 17 -3 17 -10 0 -12 55 -68 67 -68 9 0 42 45
43 58 0 6 5 12 10 12 6 0 10 11 10 24 0 13 7 26 15 30 21 8 20 72 -1 80 -21 8
-39 8 -48 -1z m-1386 -513 c12 -8 13 -11 1 -19 -15 -10 -6 -71 12 -82 6 -4 -1
-18 -17 -33 -16 -17 -26 -38 -26 -56 0 -44 -14 -73 -63 -128 -25 -28 -48 -60
-52 -71 -3 -12 -14 -21 -24 -21 -10 0 -25 -10 -33 -21 -10 -16 -20 -20 -36
-15 -12 4 -22 14 -22 22 0 8 -6 23 -12 34 -10 15 -10 22 0 32 6 6 12 25 12 42
0 16 6 37 13 45 7 9 24 51 38 94 13 42 31 79 39 82 8 3 28 23 45 45 17 24 35
38 43 35 7 -3 23 2 35 10 25 18 27 18 47 5z m370 -2450 c0 -5 -7 -10 -15 -10
-8 0 -15 5 -15 10 0 6 7 10 15 10 8 0 15 -4 15 -10z"/>
<path d="M6791 3627 c-12 -32 -21 -34 -44 -7 -20 23 -36 25 -62 7 -23 -17 -14
-61 15 -77 16 -8 27 -7 50 6 29 17 30 17 50 -6 l20 -23 0 49 c0 64 -15 89 -29
51z"/>
<path d="M4325 3011 c-116 -47 -225 -101 -225 -111 0 -12 -2 -12 40 0 19 6 56
15 81 20 45 9 142 59 190 99 22 19 23 20 4 20 -11 0 -51 -12 -90 -28z"/>
<path d="M3940 2820 c-9 -6 -10 -10 -3 -10 6 0 15 5 18 10 8 12 4 12 -15 0z"/>
<path d="M3900 2802 c-22 -7 -132 -86 -154 -111 -16 -17 -16 -21 -4 -21 9 0
21 7 28 15 7 8 42 36 79 62 36 25 68 48 70 50 9 6 -4 10 -19 5z"/>
<path d="M4339 2353 c-1 -5 -1 -11 0 -15 0 -5 -6 -8 -14 -8 -23 0 -19 -57 5
-77 11 -10 16 -21 11 -27 -10 -13 7 -130 25 -172 8 -17 18 -61 23 -97 6 -43
17 -74 30 -88 25 -27 25 -29 5 -57 -11 -17 -25 -22 -57 -22 -34 0 -49 7 -80
36 -44 41 -68 41 -80 -2 -11 -38 25 -115 78 -167 l35 -34 -5 -96 c-3 -74 0
-113 15 -169 10 -40 25 -120 34 -178 15 -108 26 -144 101 -340 25 -63 56 -150
71 -193 l27 -77 118 0 c164 0 161 -6 119 211 -15 76 -9 114 20 122 17 4 20 13
20 61 0 31 -7 73 -15 93 -11 25 -12 40 -5 47 7 7 10 3 10 -13 0 -12 4 -20 10
-16 17 11 41 -56 56 -157 14 -90 14 -102 0 -117 -18 -19 -21 -42 -8 -56 8 -10
16 -36 42 -132 l11 -43 53 0 c73 0 81 12 57 86 -10 32 -29 93 -41 134 -25 86
-98 299 -130 380 -12 30 -33 111 -46 180 -13 69 -28 136 -33 150 -5 14 -35
106 -67 205 -50 160 -161 453 -199 524 -7 14 -31 45 -53 69 -32 34 -45 42 -75
42 -20 0 -39 5 -42 10 -7 12 -24 13 -26 3z"/>
<path d="M3611 1248 c1 -27 15 -52 23 -40 4 6 2 21 -4 32 -12 23 -20 26 -19 8z"/>
<path d="M3671 1161 c-11 -7 -7 -20 19 -67 76 -135 124 -205 169 -246 27 -23
56 -60 64 -80 9 -21 14 -38 12 -38 -11 0 47 -105 71 -131 l28 -29 182 0 c101
0 185 4 188 8 3 5 -5 41 -16 80 -16 56 -32 85 -70 128 -26 30 -51 66 -54 79
-3 13 -12 26 -19 29 -8 3 -17 27 -21 56 -4 27 -10 50 -15 50 -4 0 -11 10 -15
22 -8 26 -22 42 -46 51 -13 4 -22 -1 -32 -22 -8 -15 -28 -36 -43 -46 -15 -10
-39 -29 -52 -41 -24 -22 -26 -22 -53 -6 -15 9 -28 20 -28 24 0 4 -9 8 -20 8
-11 0 -23 6 -26 13 -2 7 -29 31 -59 53 -30 21 -55 44 -55 50 0 10 -75 64 -88
64 -4 0 -13 -4 -21 -9z"/>
<path d="M2710 713 c0 -22 2 -25 10 -13 13 20 13 40 0 40 -5 0 -10 -12 -10
-27z"/>
</g>
</svg>
